<?xml version="1.0" encoding="UTF-8" standalone="no"?>
<svg
   xmlns:dc="http://purl.org/dc/elements/1.1/"
   xmlns:cc="http://creativecommons.org/ns#"
   xmlns:rdf="http://www.w3.org/1999/02/22-rdf-syntax-ns#"
   xmlns:svg="http://www.w3.org/2000/svg"
   xmlns="http://www.w3.org/2000/svg"
   xmlns:sodipodi="http://sodipodi.sourceforge.net/DTD/sodipodi-0.dtd"
   xmlns:inkscape="http://www.inkscape.org/namespaces/inkscape"
   version="1.1"
   id="svg2"
   xml:space="preserve"
   width="200"
   height="200"
   viewBox="0 0 3181.3333 3380"
   sodipodi:docname="vecteezy_the-amazed-expression-of-the-drink-can-cartoon_.eps"><metadata
     id="metadata8"><rdf:RDF><cc:Work
         rdf:about=""><dc:format>image/svg+xml</dc:format><dc:type
           rdf:resource="http://purl.org/dc/dcmitype/StillImage" /></cc:Work></rdf:RDF></metadata><defs
     id="defs6" /><sodipodi:namedview
     pagecolor="#ffffff"
     bordercolor="#666666"
     borderopacity="1"
     objecttolerance="10"
     gridtolerance="10"
     guidetolerance="10"
     inkscape:pageopacity="0"
     inkscape:pageshadow="2"
     inkscape:window-width="640"
     inkscape:window-height="480"
     id="namedview4" /><g
     id="g10"
     inkscape:groupmode="layer"
     inkscape:label="ink_ext_XXXXXX"
     transform="matrix(1.3333333,0,0,-1.3333333,0,3380)"><g
       id="g12"
       transform="scale(0.1)"><path
         d="M 0,9.17969 H 23850.2 V 25349.98 H 0 Z"
         style="fill:#ffffff;fill-opacity:1;fill-rule:nonzero;stroke:none"
         id="path14" /><path
         d="m 11924.9,12815 c -2.2,0 -4.5,0 -6.8,0 -0.6,0 -1.3,-0.1 -2,-0.1 -2.3,-0.3 -4.6,-0.6 -6.9,-0.9 -2.2,-0.2 -4.4,-0.6 -6.7,-0.9 -2.2,-0.4 -4.4,-0.9 -6.6,-1.5 -2,-0.3 -4,-0.7 -6,-1.2 -0.3,0 -0.6,0 -0.9,0 -0.6,-0.3 -1.3,-0.6 -2,-0.9 -2.9,-0.9 -5.9,-1.9 -8.8,-3 -2.1,-0.8 -4.2,-1.6 -6.2,-2.5 -2.1,-0.9 -4.2,-1.8 -6.2,-2.8 -2,-1 -4,-2.1 -6,-3.1 -1.9,-1.1 -3.9,-2.2 -5.9,-3.4 -1.8,-1.2 -3.7,-2.4 -5.5,-3.7 -1.9,-1.3 -3.7,-2.6 -5.5,-4 -1.8,-1.3 -3.6,-2.7 -5.2,-4.2 -1.8,-1.5 -3.4,-3 -5.1,-4.5 -1.6,-1.5 -3.2,-3.1 -4.8,-4.8 -1.5,-1.6 -3.1,-3.3 -4.6,-4.9 -1.5,-1.7 -2.9,-3.5 -4.3,-5.3 -1.4,-1.7 -2.8,-3.5 -4.1,-5.4 -1.3,-1.8 -2.5,-3.7 -3.7,-5.6 -1.3,-1.9 -2.4,-3.8 -3.6,-5.7 -1.1,-2 -2.1,-4 -3.1,-6 -1,-2 -2,-4.1 -2.9,-6.1 -0.9,-2.1 -1.8,-4.2 -2.6,-6.3 -0.8,-2.1 -1.6,-4.2 -2.3,-6.3 -0.7,-2.2 -1.4,-4.3 -2,-6.5 -0.5,-2.2 -1.1,-4.3 -1.6,-6.5 -0.5,-2.2 -0.9,-4.5 -1.2,-6.7 -0.4,-2.2 -0.7,-4.4 -1,-6.6 -0.4,-2.3 -0.7,-4.5 -0.9,-6.8 -0.1,-2.2 -0.1,-4.5 0,-6.7 -0.1,-0.8 -0.1,-1.7 0,-2.6 -0.1,-2.2 -0.1,-4.5 0,-6.7 0,-0.7 0,-1.4 0,-2.1 0.3,-2.3 0.6,-4.5 1,-6.7 0.2,-2.3 0.5,-4.5 0.9,-6.8 0.3,-2.2 0.9,-4.4 1.4,-6.6 0.4,-2 0.8,-4.1 1.2,-6.1 0,-0.3 0,-0.6 0,-0.9 0.3,-0.6 0.6,-1.3 1,-2 0.9,-2.9 1.8,-5.9 2.9,-8.8 0.8,-2.1 1.7,-4.2 2.6,-6.3 0.8,-2.1 1.7,-4.1 2.7,-6.1 1,-2 2,-4 3.1,-6 1.1,-2 2.2,-3.9 3.3,-5.8 1.2,-2 2.5,-3.9 3.8,-5.7 1.2,-1.9 2.5,-3.7 3.8,-5.5 1.4,-1.8 2.8,-3.5 4.2,-5.3 1.5,-1.7 3,-3.3 4.6,-5 1.5,-1.6 3.1,-3.2 4.7,-4.8 1.6,-1.6 3.3,-3.1 5,-4.6 1.7,-1.4 3.4,-2.9 5.2,-4.3 1.8,-1.4 3.6,-2.7 5.4,-4.1 1.9,-1.2 3.7,-2.5 5.6,-3.7 1.9,-1.3 3.8,-2.4 5.8,-3.6 1.9,-1.1 3.9,-2.1 5.9,-3.1 2.1,-1 4.1,-2 6.2,-3 2,-0.9 4.1,-1.7 6.2,-2.5 2.1,-0.9 4.2,-1.6 6.4,-2.3 2.1,-0.7 4.3,-1.4 6.5,-2 2.1,-0.6 4.3,-1.1 6.6,-1.6 2.2,-0.6 4.3,-0.9 6.5,-1.3 2.2,-0.4 4.5,-0.7 6.7,-1 2.2,-0.4 4.5,-0.7 6.7,-0.9 2.3,-0.1 4.5,-0.1 6.7,0 0.9,0 1.8,-0.1 2.7,-0.1 2.2,-0.1 4.4,-0.1 6.7,0 0.7,0 1.4,0.1 2.1,0.1 2.3,0.2 4.6,0.5 6.8,0.9 2.3,0.2 4.5,0.5 6.7,0.9 2.2,0.4 4.4,0.9 6.6,1.4 2,0.4 4,0.8 6,1.3 0.3,0 0.6,0 0.9,0 0.7,0.3 1.3,0.6 2,0.9 3,0.9 6,1.9 8.9,3 2.1,0.7 4.2,1.6 6.3,2.5 2,0.9 4.1,1.8 6.2,2.8 2,1 4,2 5.9,3.1 2,1.1 4,2.2 5.9,3.3 1.9,1.3 3.8,2.5 5.7,3.8 1.9,1.2 3.7,2.5 5.5,3.9 1.7,1.4 3.5,2.8 5.2,4.3 1.7,1.4 3.4,2.9 5.1,4.4 1.6,1.5 3.2,3.1 4.7,4.8 1.6,1.5 3.1,3.2 4.6,4.8 1.5,1.7 3,3.5 4.3,5.3 1.4,1.7 2.8,3.5 4.1,5.4 1.3,1.8 2.6,3.7 3.8,5.5 1.2,2 2.4,3.9 3.5,5.8 1.1,2 2.1,4 3.2,6.1 1,1.9 1.9,4 2.9,6 0.8,2.1 1.7,4.1 2.5,6.2 0.8,2.1 1.6,4.3 2.3,6.4 0.7,2.1 1.3,4.3 1.9,6.4 0.6,2.2 1.2,4.4 1.7,6.6 0.5,2.2 0.9,4.4 1.3,6.7 0.4,2.2 0.7,4.4 0.9,6.6 0.4,2.3 0.7,4.5 1,6.8 0,2.2 0,4.4 0,6.7 0,0.8 0,1.7 0,2.6 0,2.2 0,4.5 0,6.8 0,0.6 -0.1,1.3 -0.1,2 -0.3,2.3 -0.5,4.6 -0.9,6.9 -0.3,2.2 -0.5,4.4 -0.9,6.6 -0.4,2.3 -0.9,4.5 -1.5,6.7 -0.3,2.1 -0.7,4 -1.2,6 0,0.3 0,0.7 0,1 -0.3,0.6 -0.6,1.3 -0.9,1.9 -0.9,3 -1.9,6 -3,8.9 -0.8,2.1 -1.6,4.2 -2.5,6.3 -0.8,2 -1.8,4.1 -2.7,6.1 -1,2 -2.1,4 -3.2,5.9 -1,2 -2.1,4 -3.3,5.9 -1.2,1.9 -2.4,3.8 -3.7,5.6 -1.3,1.9 -2.6,3.7 -4,5.5 -1.3,1.8 -2.7,3.5 -4.2,5.2 -1.5,1.8 -2.9,3.5 -4.5,5.1 -1.6,1.7 -3.2,3.3 -4.8,4.9 -1.6,1.5 -3.3,3 -4.9,4.5 -1.8,1.5 -3.5,2.9 -5.3,4.3 -1.7,1.4 -3.6,2.7 -5.4,4 -1.8,1.3 -3.8,2.6 -5.7,3.8 -1.8,1.2 -3.8,2.4 -5.8,3.5 -1.9,1.2 -3.9,2.2 -5.9,3.2 -2,1 -4.1,2 -6.1,3 -2,0.8 -4.1,1.7 -6.2,2.5 -2.1,0.8 -4.2,1.6 -6.4,2.3 -2.1,0.7 -4.2,1.4 -6.4,1.9 -2.2,0.7 -4.4,1.2 -6.6,1.8 -2.2,0.4 -4.4,0.8 -6.6,1.2 -2.2,0.4 -4.5,0.7 -6.8,1 -2.1,0.3 -4.4,0.6 -6.6,0.9 -2.3,0.1 -4.5,0.1 -6.8,0 -0.8,0 -1.7,0.1 -2.5,0.1 z"
         style="fill:#ffffff;fill-opacity:1;fill-rule:nonzero;stroke:none"
         id="path16" /><path
         d="m 11924.9,12815 c -2.2,0 -4.5,0 -6.8,0 -0.6,0 -1.3,-0.1 -2,-0.1 -2.3,-0.3 -4.6,-0.6 -6.9,-0.9 -2.2,-0.2 -4.4,-0.6 -6.7,-0.9 -2.2,-0.4 -4.4,-0.9 -6.6,-1.5 -2,-0.3 -4,-0.7 -6,-1.2 -0.3,0 -0.6,0 -0.9,0 -0.6,-0.3 -1.3,-0.6 -2,-0.9 -2.9,-0.9 -5.9,-1.9 -8.8,-3 -2.1,-0.8 -4.2,-1.6 -6.2,-2.5 -2.1,-0.9 -4.2,-1.8 -6.2,-2.8 -2,-1 -4,-2.1 -6,-3.1 -1.9,-1.1 -3.9,-2.2 -5.9,-3.4 -1.8,-1.2 -3.7,-2.4 -5.5,-3.7 -1.9,-1.3 -3.7,-2.6 -5.5,-4 -1.8,-1.3 -3.6,-2.7 -5.2,-4.2 -1.8,-1.5 -3.4,-3 -5.1,-4.5 -1.6,-1.5 -3.2,-3.1 -4.8,-4.8 -1.5,-1.6 -3.1,-3.3 -4.6,-4.9 -1.5,-1.7 -2.9,-3.5 -4.3,-5.3 -1.4,-1.7 -2.8,-3.5 -4.1,-5.4 -1.3,-1.8 -2.5,-3.7 -3.7,-5.6 -1.3,-1.9 -2.4,-3.8 -3.6,-5.7 -1.1,-2 -2.1,-4 -3.1,-6 -1,-2 -2,-4.1 -2.9,-6.1 -0.9,-2.1 -1.8,-4.2 -2.6,-6.3 -0.8,-2.1 -1.6,-4.2 -2.3,-6.3 -0.7,-2.2 -1.4,-4.3 -2,-6.5 -0.5,-2.2 -1.1,-4.3 -1.6,-6.5 -0.5,-2.2 -0.9,-4.5 -1.2,-6.7 -0.4,-2.2 -0.7,-4.4 -1,-6.6 -0.4,-2.3 -0.7,-4.5 -0.9,-6.8 -0.1,-2.2 -0.1,-4.5 0,-6.7 -0.1,-0.8 -0.1,-1.7 0,-2.6 -0.1,-2.2 -0.1,-4.5 0,-6.7 0,-0.7 0,-1.4 0,-2.1 0.3,-2.3 0.6,-4.5 1,-6.7 0.2,-2.3 0.5,-4.6 0.9,-6.9 0.3,-2.2 0.9,-4.4 1.4,-6.6 0.4,-2 0.8,-4 1.2,-6 0,-0.3 0,-0.6 0,-0.9 0.3,-0.6 0.6,-1.3 1,-2 0.9,-2.9 1.8,-5.9 2.9,-8.8 0.8,-2.1 1.7,-4.2 2.6,-6.3 0.8,-2.1 1.7,-4.1 2.7,-6.1 1,-2 2,-4 3.1,-6 1.1,-2 2.2,-3.9 3.3,-5.8 1.2,-2 2.5,-3.9 3.8,-5.7 1.2,-1.9 2.5,-3.7 3.8,-5.5 1.4,-1.8 2.8,-3.5 4.2,-5.3 1.5,-1.7 3,-3.3 4.6,-5 1.5,-1.6 3.1,-3.2 4.7,-4.8 1.6,-1.6 3.3,-3.1 5,-4.6 1.7,-1.4 3.4,-2.9 5.2,-4.3 1.8,-1.4 3.6,-2.7 5.4,-4.1 1.9,-1.2 3.7,-2.5 5.6,-3.7 1.9,-1.3 3.8,-2.4 5.8,-3.6 1.9,-1.1 3.9,-2.1 5.9,-3.1 2.1,-1 4.1,-2 6.2,-3 2,-0.9 4.1,-1.7 6.2,-2.5 2.1,-0.9 4.2,-1.6 6.4,-2.3 2.1,-0.7 4.3,-1.4 6.5,-2 2.1,-0.5 4.3,-1.1 6.6,-1.6 2.2,-0.4 4.3,-0.9 6.5,-1.2 2.2,-0.4 4.5,-0.7 6.7,-1 2.2,-0.4 4.5,-0.7 6.7,-0.9 2.3,-0.1 4.5,-0.1 6.7,0 0.9,0 1.8,0 2.7,0 2.2,-0.1 4.4,-0.1 6.7,0 0.7,0 1.4,0 2.1,0 2.3,0.3 4.6,0.6 6.8,1 2.3,0.2 4.5,0.5 6.7,0.9 2.2,0.4 4.4,0.8 6.6,1.4 2,0.4 4,0.8 6,1.2 0.3,0 0.6,0 0.9,0 0.7,0.4 1.3,0.7 2,0.9 3,0.9 6,2 8.9,3.1 2.1,0.7 4.2,1.5 6.3,2.5 2,0.9 4.1,1.8 6.2,2.8 2,0.9 4,2 5.9,3.1 2,1.1 4,2.2 5.9,3.3 1.9,1.2 3.8,2.5 5.7,3.7 1.9,1.3 3.7,2.6 5.5,4 1.7,1.4 3.5,2.8 5.2,4.2 1.7,1.5 3.4,2.9 5.1,4.5 1.6,1.5 3.2,3.1 4.7,4.7 1.6,1.6 3.1,3.2 4.6,4.9 1.5,1.7 3,3.5 4.3,5.2 1.4,1.8 2.8,3.6 4.1,5.5 1.3,1.8 2.6,3.6 3.8,5.5 1.2,1.9 2.4,3.9 3.5,5.8 1.1,2 2.1,4 3.2,6 1,2 1.9,4.1 2.9,6.1 0.8,2 1.7,4.1 2.5,6.2 0.8,2.1 1.6,4.3 2.3,6.4 0.7,2.1 1.3,4.3 1.9,6.4 0.6,2.2 1.2,4.4 1.7,6.6 0.5,2.2 0.9,4.4 1.3,6.6 0.4,2.3 0.7,4.5 0.9,6.7 0.4,2.3 0.7,4.5 1,6.8 0,2.2 0,4.4 0,6.6 0,0.9 0,1.8 0,2.6 0,2.3 0,4.6 0,6.9 0,0.7 -0.1,1.4 -0.1,2.1 -0.3,2.3 -0.5,4.6 -0.9,6.8 -0.3,2.3 -0.5,4.5 -0.9,6.7 -0.4,2.2 -0.9,4.5 -1.5,6.7 -0.3,2 -0.7,4 -1.2,5.9 0,0.3 0,0.6 0,0.9 -0.3,0.7 -0.6,1.3 -0.9,2 -0.9,3 -1.9,6 -3,8.8 -0.8,2.2 -1.6,4.3 -2.5,6.4 -0.8,2 -1.8,4.1 -2.7,6.1 -1,2 -2.1,4 -3.2,5.9 -1,2 -2.1,4 -3.3,5.9 -1.2,1.9 -2.4,3.7 -3.7,5.6 -1.3,1.9 -2.6,3.7 -4,5.5 -1.3,1.8 -2.7,3.5 -4.2,5.2 -1.5,1.8 -2.9,3.5 -4.5,5.1 -1.6,1.7 -3.2,3.3 -4.8,4.8 -1.6,1.6 -3.3,3.1 -4.9,4.6 -1.8,1.5 -3.5,2.9 -5.3,4.4 -1.7,1.4 -3.6,2.7 -5.4,4 -1.8,1.3 -3.8,2.6 -5.7,3.8 -1.8,1.2 -3.8,2.4 -5.8,3.5 -1.9,1.1 -3.9,2.2 -5.9,3.2 -2,1 -4.1,2 -6.1,3 -2,0.8 -4.1,1.7 -6.2,2.5 -2.1,0.8 -4.2,1.6 -6.4,2.3 -2.1,0.7 -4.2,1.3 -6.4,1.9 -2.2,0.6 -4.4,1.2 -6.6,1.7 -2.2,0.5 -4.4,0.9 -6.6,1.3 -2.2,0.4 -4.5,0.7 -6.8,1 -2.1,0.3 -4.4,0.6 -6.6,0.9 -2.3,0 -4.5,0 -6.8,0 -0.8,0 -1.7,0 -2.5,0 z"
         style="fill:#ffffff;fill-opacity:1;fill-rule:nonzero;stroke:none"
         id="path18" /><path
         d="m 11924.9,12815 c -2.2,0 -4.5,0 -6.8,0 -0.6,0 -1.3,-0.1 -2,-0.1 -2.3,-0.3 -4.6,-0.6 -6.9,-0.9 -2.2,-0.2 -4.4,-0.6 -6.7,-0.9 -2.2,-0.4 -4.4,-0.9 -6.6,-1.5 -2,-0.3 -4,-0.7 -6,-1.2 -0.3,0 -0.6,0 -0.9,0 -0.6,-0.3 -1.3,-0.6 -2,-0.9 -2.9,-0.9 -5.9,-1.9 -8.8,-3 -2.1,-0.8 -4.2,-1.6 -6.2,-2.5 -2.1,-0.9 -4.2,-1.8 -6.2,-2.8 -2,-1 -4,-2.1 -6,-3.1 -1.9,-1.1 -3.9,-2.2 -5.9,-3.4 -1.8,-1.2 -3.7,-2.4 -5.5,-3.7 -1.9,-1.3 -3.7,-2.6 -5.5,-4 -1.8,-1.3 -3.6,-2.7 -5.2,-4.2 -1.8,-1.5 -3.4,-3 -5.1,-4.5 -1.6,-1.5 -3.2,-3.1 -4.8,-4.8 -1.5,-1.6 -3.1,-3.3 -4.6,-4.9 -1.5,-1.7 -2.9,-3.5 -4.3,-5.3 -1.4,-1.7 -2.8,-3.5 -4.1,-5.4 -1.3,-1.8 -2.5,-3.7 -3.7,-5.6 -1.3,-1.9 -2.4,-3.8 -3.6,-5.7 -1.1,-2 -2.1,-4 -3.1,-6 -1,-2 -2,-4.1 -2.9,-6.1 -0.9,-2.1 -1.8,-4.2 -2.6,-6.3 -0.8,-2.1 -1.6,-4.2 -2.3,-6.3 -0.7,-2.2 -1.4,-4.3 -2,-6.5 -0.5,-2.2 -1.1,-4.3 -1.6,-6.5 -0.5,-2.2 -0.9,-4.5 -1.2,-6.7 -0.4,-2.2 -0.7,-4.4 -1,-6.6 -0.4,-2.3 -0.7,-4.5 -0.9,-6.8 -0.1,-2.2 -0.1,-4.5 0,-6.7 -0.1,-0.8 -0.1,-1.7 0,-2.6 -0.1,-2.2 -0.1,-4.5 0,-6.7 0,-0.7 0,-1.4 0,-2.1 0.3,-2.3 0.6,-4.5 1,-6.7 0.2,-2.3 0.5,-4.6 0.9,-6.9 0.3,-2.2 0.9,-4.4 1.4,-6.6 0.4,-2 0.8,-4 1.2,-6 0,-0.3 0,-0.6 0,-0.9 0.3,-0.6 0.6,-1.3 1,-2 0.9,-2.9 1.8,-5.9 2.9,-8.8 0.8,-2.1 1.7,-4.2 2.6,-6.3 0.8,-2.1 1.7,-4.1 2.7,-6.1 1,-2 2,-4 3.1,-6 1.1,-2 2.2,-3.9 3.3,-5.8 1.2,-2 2.5,-3.9 3.8,-5.7 1.2,-1.9 2.5,-3.7 3.8,-5.5 1.4,-1.8 2.8,-3.5 4.2,-5.3 1.5,-1.7 3,-3.3 4.6,-5 1.5,-1.6 3.1,-3.2 4.7,-4.8 1.6,-1.6 3.3,-3.1 5,-4.6 1.7,-1.4 3.4,-2.9 5.2,-4.3 1.8,-1.4 3.6,-2.7 5.4,-4.1 1.9,-1.2 3.7,-2.5 5.6,-3.7 1.9,-1.3 3.8,-2.4 5.8,-3.6 1.9,-1.1 3.9,-2.1 5.9,-3.1 2.1,-1 4.1,-2 6.2,-3 2,-0.9 4.1,-1.7 6.2,-2.5 2.1,-0.9 4.2,-1.6 6.4,-2.3 2.1,-0.7 4.3,-1.4 6.5,-2 2.1,-0.5 4.3,-1.1 6.6,-1.6 2.2,-0.4 4.3,-0.9 6.5,-1.2 2.2,-0.4 4.5,-0.7 6.7,-1 2.2,-0.4 4.5,-0.7 6.7,-0.9 2.3,-0.1 4.5,-0.1 6.7,0 0.9,0 1.8,0 2.7,0 2.2,-0.1 4.4,-0.1 6.7,0 0.7,0 1.4,0 2.1,0 2.3,0.3 4.6,0.6 6.8,1 2.3,0.2 4.5,0.5 6.7,0.9 2.2,0.4 4.4,0.8 6.6,1.4 2,0.4 4,0.8 6,1.2 0.3,0 0.6,0 0.9,0 0.7,0.4 1.3,0.7 2,0.9 3,0.9 6,2 8.9,3.1 2.1,0.7 4.2,1.5 6.3,2.5 2,0.9 4.1,1.8 6.2,2.8 2,0.9 4,2 5.9,3.1 2,1.1 4,2.2 5.9,3.3 1.9,1.2 3.8,2.5 5.7,3.7 1.9,1.3 3.7,2.6 5.5,4 1.7,1.4 3.5,2.8 5.2,4.2 1.7,1.5 3.4,2.9 5.1,4.5 1.6,1.5 3.2,3.1 4.7,4.7 1.6,1.6 3.1,3.2 4.6,4.9 1.5,1.7 3,3.5 4.3,5.2 1.4,1.8 2.8,3.6 4.1,5.5 1.3,1.8 2.6,3.6 3.8,5.5 1.2,1.9 2.4,3.9 3.5,5.8 1.1,2 2.1,4 3.2,6 1,2 1.9,4.1 2.9,6.1 0.8,2 1.7,4.1 2.5,6.2 0.8,2.1 1.6,4.3 2.3,6.4 0.7,2.1 1.3,4.3 1.9,6.4 0.6,2.2 1.2,4.4 1.7,6.6 0.5,2.2 0.9,4.4 1.3,6.6 0.4,2.3 0.7,4.5 0.9,6.7 0.4,2.3 0.7,4.5 1,6.8 0,2.2 0,4.4 0,6.6 0,0.9 0,1.8 0,2.6 0,2.3 0,4.6 0,6.9 0,0.7 -0.1,1.4 -0.1,2.1 -0.3,2.3 -0.5,4.6 -0.9,6.8 -0.3,2.3 -0.5,4.5 -0.9,6.7 -0.4,2.2 -0.9,4.5 -1.5,6.7 -0.3,2 -0.7,4 -1.2,5.9 0,0.3 0,0.6 0,0.9 -0.3,0.7 -0.6,1.3 -0.9,2 -0.9,3 -1.9,6 -3,8.8 -0.8,2.2 -1.6,4.3 -2.5,6.4 -0.8,2 -1.8,4.1 -2.7,6.1 -1,2 -2.1,4 -3.2,5.9 -1,2 -2.1,4 -3.3,5.9 -1.2,1.9 -2.4,3.7 -3.7,5.6 -1.3,1.9 -2.6,3.7 -4,5.5 -1.3,1.8 -2.7,3.5 -4.2,5.2 -1.5,1.8 -2.9,3.5 -4.5,5.1 -1.6,1.7 -3.2,3.3 -4.8,4.8 -1.6,1.6 -3.3,3.1 -4.9,4.6 -1.8,1.5 -3.5,2.9 -5.3,4.4 -1.7,1.4 -3.6,2.7 -5.4,4 -1.8,1.3 -3.8,2.6 -5.7,3.8 -1.8,1.2 -3.8,2.4 -5.8,3.5 -1.9,1.1 -3.9,2.2 -5.9,3.2 -2,1 -4.1,2 -6.1,3 -2,0.8 -4.1,1.7 -6.2,2.5 -2.1,0.8 -4.2,1.6 -6.4,2.3 -2.1,0.7 -4.2,1.3 -6.4,1.9 -2.2,0.6 -4.4,1.2 -6.6,1.7 -2.2,0.5 -4.4,0.9 -6.6,1.3 -2.2,0.4 -4.5,0.7 -6.8,1 -2.1,0.3 -4.4,0.6 -6.6,0.9 -2.3,0 -4.5,0 -6.8,0 -0.8,0 -1.7,0 -2.5,0 z"
         style="fill:#ffffff;fill-opacity:1;fill-rule:nonzero;stroke:none"
         id="path20" /><path
         d="m 11924.9,12815 c -2.2,0 -4.5,0 -6.8,0 -0.6,0 -1.3,-0.1 -2,-0.1 -2.3,-0.3 -4.6,-0.6 -6.9,-0.9 -2.2,-0.2 -4.4,-0.6 -6.7,-0.9 -2.2,-0.4 -4.4,-0.9 -6.6,-1.5 -2,-0.3 -4,-0.7 -6,-1.2 -0.3,0 -0.6,0 -0.9,0 -0.6,-0.3 -1.3,-0.6 -2,-0.9 -2.9,-0.9 -5.9,-1.9 -8.8,-3 -2.1,-0.8 -4.2,-1.6 -6.2,-2.5 -2.1,-0.9 -4.2,-1.8 -6.2,-2.8 -2,-1 -4,-2.1 -6,-3.1 -1.9,-1.1 -3.9,-2.2 -5.9,-3.4 -1.8,-1.2 -3.7,-2.4 -5.5,-3.7 -1.9,-1.3 -3.7,-2.6 -5.5,-4 -1.8,-1.3 -3.6,-2.7 -5.2,-4.2 -1.8,-1.5 -3.4,-3 -5.1,-4.5 -1.6,-1.5 -3.2,-3.1 -4.8,-4.8 -1.5,-1.6 -3.1,-3.3 -4.6,-4.9 -1.5,-1.7 -2.9,-3.5 -4.3,-5.3 -1.4,-1.7 -2.8,-3.5 -4.1,-5.4 -1.3,-1.8 -2.5,-3.7 -3.7,-5.6 -1.3,-1.9 -2.4,-3.8 -3.6,-5.7 -1.1,-2 -2.1,-4 -3.1,-6 -1,-2 -2,-4.1 -2.9,-6.1 -0.9,-2.1 -1.8,-4.2 -2.6,-6.3 -0.8,-2.1 -1.6,-4.2 -2.3,-6.3 -0.7,-2.2 -1.4,-4.3 -2,-6.5 -0.5,-2.2 -1.1,-4.3 -1.6,-6.5 -0.5,-2.2 -0.9,-4.5 -1.2,-6.7 -0.4,-2.2 -0.7,-4.4 -1,-6.6 -0.4,-2.3 -0.7,-4.5 -0.9,-6.8 -0.1,-2.2 -0.1,-4.5 0,-6.7 -0.1,-0.8 -0.1,-1.7 0,-2.6 -0.1,-2.2 -0.1,-4.5 0,-6.7 0,-0.7 0,-1.4 0,-2.1 0.3,-2.3 0.6,-4.5 1,-6.7 0.2,-2.3 0.5,-4.6 0.9,-6.9 0.3,-2.2 0.9,-4.4 1.4,-6.6 0.4,-2 0.8,-4 1.2,-6 0,-0.3 0,-0.6 0,-0.9 0.3,-0.6 0.6,-1.3 1,-2 0.9,-2.9 1.8,-5.9 2.9,-8.8 0.8,-2.1 1.7,-4.2 2.6,-6.3 0.8,-2.1 1.7,-4.1 2.7,-6.1 1,-2 2,-4 3.1,-6 1.1,-2 2.2,-3.9 3.3,-5.8 1.2,-2 2.5,-3.9 3.8,-5.7 1.2,-1.9 2.5,-3.7 3.8,-5.5 1.4,-1.8 2.8,-3.5 4.2,-5.3 1.5,-1.7 3,-3.3 4.6,-5 1.5,-1.6 3.1,-3.2 4.7,-4.8 1.6,-1.6 3.3,-3.1 5,-4.6 1.7,-1.4 3.4,-2.9 5.2,-4.3 1.8,-1.4 3.6,-2.7 5.4,-4.1 1.9,-1.2 3.7,-2.5 5.6,-3.7 1.9,-1.3 3.8,-2.4 5.8,-3.6 1.9,-1.1 3.9,-2.1 5.9,-3.1 2.1,-1 4.1,-2 6.2,-3 2,-0.9 4.1,-1.7 6.2,-2.5 2.1,-0.9 4.2,-1.6 6.4,-2.3 2.1,-0.7 4.3,-1.4 6.5,-2 2.1,-0.5 4.3,-1.1 6.6,-1.6 2.2,-0.4 4.3,-0.9 6.5,-1.2 2.2,-0.4 4.5,-0.7 6.7,-1 2.2,-0.4 4.5,-0.7 6.7,-0.9 2.3,-0.1 4.5,-0.1 6.7,0 0.9,0 1.8,0 2.7,0 2.2,-0.1 4.4,-0.1 6.7,0 0.7,0 1.4,0 2.1,0 2.3,0.3 4.6,0.6 6.8,1 2.3,0.2 4.5,0.5 6.7,0.9 2.2,0.4 4.4,0.8 6.6,1.4 2,0.4 4,0.8 6,1.2 0.3,0 0.6,0 0.9,0 0.7,0.4 1.3,0.7 2,0.9 3,0.9 6,2 8.9,3.1 2.1,0.7 4.2,1.5 6.3,2.5 2,0.9 4.1,1.8 6.2,2.8 2,0.9 4,2 5.9,3.1 2,1.1 4,2.2 5.9,3.3 1.9,1.2 3.8,2.5 5.7,3.7 1.9,1.3 3.7,2.6 5.5,4 1.7,1.4 3.5,2.8 5.2,4.2 1.7,1.5 3.4,2.9 5.1,4.5 1.6,1.5 3.2,3.1 4.7,4.7 1.6,1.6 3.1,3.2 4.6,4.9 1.5,1.7 3,3.5 4.3,5.2 1.4,1.8 2.8,3.6 4.1,5.5 1.3,1.8 2.6,3.6 3.8,5.5 1.2,1.9 2.4,3.9 3.5,5.8 1.1,2 2.1,4 3.2,6 1,2 1.9,4.1 2.9,6.1 0.8,2 1.7,4.1 2.5,6.2 0.8,2.1 1.6,4.3 2.3,6.4 0.7,2.1 1.3,4.3 1.9,6.4 0.6,2.2 1.2,4.4 1.7,6.6 0.5,2.2 0.9,4.4 1.3,6.6 0.4,2.3 0.7,4.5 0.9,6.7 0.4,2.3 0.7,4.5 1,6.8 0,2.2 0,4.4 0,6.6 0,0.9 0,1.8 0,2.6 0,2.3 0,4.6 0,6.9 0,0.7 -0.1,1.4 -0.1,2.1 -0.3,2.3 -0.5,4.6 -0.9,6.8 -0.3,2.3 -0.5,4.5 -0.9,6.7 -0.4,2.2 -0.9,4.5 -1.5,6.7 -0.3,2 -0.7,4 -1.2,5.9 0,0.3 0,0.6 0,0.9 -0.3,0.7 -0.6,1.3 -0.9,2 -0.9,3 -1.9,6 -3,8.8 -0.8,2.2 -1.6,4.3 -2.5,6.4 -0.8,2 -1.8,4.1 -2.7,6.1 -1,2 -2.1,4 -3.2,5.9 -1,2 -2.1,4 -3.3,5.9 -1.2,1.9 -2.4,3.7 -3.7,5.6 -1.3,1.9 -2.6,3.7 -4,5.5 -1.3,1.8 -2.7,3.5 -4.2,5.2 -1.5,1.8 -2.9,3.5 -4.5,5.1 -1.6,1.7 -3.2,3.3 -4.8,4.8 -1.6,1.6 -3.3,3.1 -4.9,4.6 -1.8,1.5 -3.5,2.9 -5.3,4.4 -1.7,1.4 -3.6,2.7 -5.4,4 -1.8,1.3 -3.8,2.6 -5.7,3.8 -1.8,1.2 -3.8,2.4 -5.8,3.5 -1.9,1.1 -3.9,2.2 -5.9,3.2 -2,1 -4.1,2 -6.1,3 -2,0.8 -4.1,1.7 -6.2,2.5 -2.1,0.8 -4.2,1.6 -6.4,2.3 -2.1,0.7 -4.2,1.3 -6.4,1.9 -2.2,0.6 -4.4,1.2 -6.6,1.7 -2.2,0.5 -4.4,0.9 -6.6,1.3 -2.2,0.4 -4.5,0.7 -6.8,1 -2.1,0.3 -4.4,0.6 -6.6,0.9 -2.3,0 -4.5,0 -6.8,0 -0.8,0 -1.7,0 -2.5,0 z"
         style="fill:#ffffff;fill-opacity:1;fill-rule:nonzero;stroke:none"
         id="path22" /><path
         d="m 11924.9,12815 c -2.2,0 -4.5,0 -6.8,0 -0.6,0 -1.3,-0.1 -2,-0.1 -2.3,-0.3 -4.6,-0.6 -6.9,-0.9 -2.2,-0.2 -4.4,-0.6 -6.7,-0.9 -2.2,-0.4 -4.4,-0.9 -6.6,-1.5 -2,-0.3 -4,-0.7 -6,-1.2 -0.3,0 -0.6,0 -0.9,0 -0.6,-0.3 -1.3,-0.6 -2,-0.9 -2.9,-0.9 -5.9,-1.9 -8.8,-3 -2.1,-0.8 -4.2,-1.6 -6.2,-2.5 -2.1,-0.9 -4.2,-1.8 -6.2,-2.8 -2,-1 -4,-2.1 -6,-3.1 -1.9,-1.1 -3.9,-2.2 -5.9,-3.4 -1.8,-1.2 -3.7,-2.4 -5.5,-3.7 -1.9,-1.3 -3.7,-2.6 -5.5,-4 -1.8,-1.3 -3.6,-2.7 -5.2,-4.2 -1.8,-1.5 -3.4,-3 -5.1,-4.5 -1.6,-1.5 -3.2,-3.1 -4.8,-4.8 -1.5,-1.6 -3.1,-3.3 -4.6,-4.9 -1.5,-1.7 -2.9,-3.5 -4.3,-5.3 -1.4,-1.7 -2.8,-3.5 -4.1,-5.4 -1.3,-1.8 -2.5,-3.7 -3.7,-5.6 -1.3,-1.9 -2.4,-3.8 -3.6,-5.7 -1.1,-2 -2.1,-4 -3.1,-6 -1,-2 -2,-4.1 -2.9,-6.1 -0.9,-2.1 -1.8,-4.2 -2.6,-6.3 -0.8,-2.1 -1.6,-4.2 -2.3,-6.3 -0.7,-2.2 -1.4,-4.3 -2,-6.5 -0.5,-2.2 -1.1,-4.3 -1.6,-6.5 -0.5,-2.2 -0.9,-4.5 -1.2,-6.7 -0.4,-2.2 -0.7,-4.4 -1,-6.6 -0.4,-2.3 -0.7,-4.5 -0.9,-6.8 -0.1,-2.2 -0.1,-4.5 0,-6.7 -0.1,-0.8 -0.1,-1.7 0,-2.6 -0.1,-2.2 -0.1,-4.5 0,-6.7 0,-0.7 0,-1.4 0,-2.1 0.3,-2.3 0.6,-4.5 1,-6.7 0.2,-2.3 0.5,-4.6 0.9,-6.9 0.3,-2.2 0.9,-4.4 1.4,-6.6 0.4,-2 0.8,-4 1.2,-6 0,-0.3 0,-0.6 0,-0.9 0.3,-0.6 0.6,-1.3 1,-2 0.9,-2.9 1.8,-5.9 2.9,-8.8 0.8,-2.1 1.7,-4.2 2.6,-6.3 0.8,-2.1 1.7,-4.1 2.7,-6.1 1,-2 2,-4 3.1,-6 1.1,-2 2.2,-3.9 3.3,-5.8 1.2,-2 2.5,-3.9 3.8,-5.7 1.2,-1.9 2.5,-3.7 3.8,-5.5 1.4,-1.8 2.8,-3.5 4.2,-5.3 1.5,-1.7 3,-3.3 4.6,-5 1.5,-1.6 3.1,-3.2 4.7,-4.8 1.6,-1.6 3.3,-3.1 5,-4.6 1.7,-1.4 3.4,-2.9 5.2,-4.3 1.8,-1.4 3.6,-2.7 5.4,-4.1 1.9,-1.2 3.7,-2.5 5.6,-3.7 1.9,-1.3 3.8,-2.4 5.8,-3.6 1.9,-1.1 3.9,-2.1 5.9,-3.1 2.1,-1 4.1,-2 6.2,-3 2,-0.9 4.1,-1.7 6.2,-2.5 2.1,-0.9 4.2,-1.6 6.4,-2.3 2.1,-0.7 4.3,-1.4 6.5,-2 2.1,-0.5 4.3,-1.1 6.6,-1.6 2.2,-0.4 4.3,-0.9 6.5,-1.2 2.2,-0.4 4.5,-0.7 6.7,-1 2.2,-0.4 4.5,-0.7 6.7,-0.9 2.3,-0.1 4.5,-0.1 6.7,0 0.9,0 1.8,0 2.7,0 2.2,-0.1 4.4,-0.1 6.7,0 0.7,0 1.4,0 2.1,0 2.3,0.3 4.6,0.6 6.8,1 2.3,0.2 4.5,0.5 6.7,0.9 2.2,0.4 4.4,0.8 6.6,1.4 2,0.4 4,0.8 6,1.2 0.3,0 0.6,0 0.9,0 0.7,0.4 1.3,0.7 2,0.9 3,0.9 6,2 8.9,3.1 2.1,0.7 4.2,1.5 6.3,2.5 2,0.9 4.1,1.8 6.2,2.8 2,0.9 4,2 5.9,3.1 2,1.1 4,2.2 5.9,3.3 1.9,1.2 3.8,2.5 5.7,3.7 1.9,1.3 3.7,2.6 5.5,4 1.7,1.4 3.5,2.8 5.2,4.2 1.7,1.5 3.4,2.9 5.1,4.5 1.6,1.5 3.2,3.1 4.7,4.7 1.6,1.6 3.1,3.2 4.6,4.9 1.5,1.7 3,3.5 4.3,5.2 1.4,1.8 2.8,3.6 4.1,5.5 1.3,1.8 2.6,3.6 3.8,5.5 1.2,1.9 2.4,3.9 3.5,5.8 1.1,2 2.1,4 3.2,6 1,2 1.9,4.1 2.9,6.1 0.8,2 1.7,4.1 2.5,6.2 0.8,2.1 1.6,4.3 2.3,6.4 0.7,2.1 1.3,4.3 1.9,6.4 0.6,2.2 1.2,4.4 1.7,6.6 0.5,2.2 0.9,4.4 1.3,6.6 0.4,2.3 0.7,4.5 0.9,6.7 0.4,2.3 0.7,4.5 1,6.8 0,2.2 0,4.4 0,6.6 0,0.9 0,1.8 0,2.6 0,2.3 0,4.6 0,6.9 0,0.7 -0.1,1.4 -0.1,2.1 -0.3,2.3 -0.5,4.6 -0.9,6.8 -0.3,2.3 -0.5,4.5 -0.9,6.7 -0.4,2.2 -0.9,4.5 -1.5,6.7 -0.3,2 -0.7,4 -1.2,5.9 0,0.3 0,0.6 0,0.9 -0.3,0.7 -0.6,1.3 -0.9,2 -0.9,3 -1.9,6 -3,8.8 -0.8,2.2 -1.6,4.3 -2.5,6.4 -0.8,2 -1.8,4.1 -2.7,6.1 -1,2 -2.1,4 -3.2,5.9 -1,2 -2.1,4 -3.3,5.9 -1.2,1.9 -2.4,3.7 -3.7,5.6 -1.3,1.9 -2.6,3.7 -4,5.5 -1.3,1.8 -2.7,3.5 -4.2,5.2 -1.5,1.8 -2.9,3.5 -4.5,5.1 -1.6,1.7 -3.2,3.3 -4.8,4.8 -1.6,1.6 -3.3,3.1 -4.9,4.6 -1.8,1.5 -3.5,2.9 -5.3,4.4 -1.7,1.4 -3.6,2.7 -5.4,4 -1.8,1.3 -3.8,2.6 -5.7,3.8 -1.8,1.2 -3.8,2.4 -5.8,3.5 -1.9,1.1 -3.9,2.2 -5.9,3.2 -2,1 -4.1,2 -6.1,3 -2,0.8 -4.1,1.7 -6.2,2.5 -2.1,0.8 -4.2,1.6 -6.4,2.3 -2.1,0.7 -4.2,1.3 -6.4,1.9 -2.2,0.6 -4.4,1.2 -6.6,1.7 -2.2,0.5 -4.4,0.9 -6.6,1.3 -2.2,0.4 -4.5,0.7 -6.8,1 -2.1,0.3 -4.4,0.6 -6.6,0.9 -2.3,0 -4.5,0 -6.8,0 -0.8,0 -1.7,0 -2.5,0 z"
         style="fill:#ffffff;fill-opacity:1;fill-rule:nonzero;stroke:none"
         id="path24" /><path
         d="m 11924.9,12815 c -2.2,0 -4.5,0 -6.8,0 -0.6,0 -1.3,-0.1 -2,-0.1 -2.3,-0.3 -4.6,-0.6 -6.9,-0.9 -2.2,-0.2 -4.4,-0.6 -6.7,-0.9 -2.2,-0.4 -4.4,-0.9 -6.6,-1.5 -2,-0.3 -4,-0.7 -6,-1.2 -0.3,0 -0.6,0 -0.9,0 -0.6,-0.3 -1.3,-0.6 -2,-0.9 -2.9,-0.9 -5.9,-1.9 -8.8,-3 -2.1,-0.8 -4.2,-1.6 -6.2,-2.5 -2.1,-0.9 -4.2,-1.8 -6.2,-2.8 -2,-1 -4,-2.1 -6,-3.1 -1.9,-1.1 -3.9,-2.2 -5.9,-3.4 -1.8,-1.2 -3.7,-2.4 -5.5,-3.7 -1.9,-1.3 -3.7,-2.6 -5.5,-4 -1.8,-1.3 -3.6,-2.7 -5.2,-4.2 -1.8,-1.5 -3.4,-3 -5.1,-4.5 -1.6,-1.5 -3.2,-3.1 -4.8,-4.8 -1.5,-1.6 -3.1,-3.3 -4.6,-4.9 -1.5,-1.7 -2.9,-3.5 -4.3,-5.3 -1.4,-1.7 -2.8,-3.5 -4.1,-5.4 -1.3,-1.8 -2.5,-3.7 -3.7,-5.6 -1.3,-1.9 -2.4,-3.8 -3.6,-5.7 -1.1,-2 -2.1,-4 -3.1,-6 -1,-2 -2,-4.1 -2.9,-6.1 -0.9,-2.1 -1.8,-4.2 -2.6,-6.3 -0.8,-2.1 -1.6,-4.2 -2.3,-6.3 -0.7,-2.2 -1.4,-4.3 -2,-6.5 -0.5,-2.2 -1.1,-4.3 -1.6,-6.5 -0.5,-2.2 -0.9,-4.5 -1.2,-6.7 -0.4,-2.2 -0.7,-4.4 -1,-6.6 -0.4,-2.3 -0.7,-4.5 -0.9,-6.8 -0.1,-2.2 -0.1,-4.5 0,-6.7 -0.1,-0.8 -0.1,-1.7 0,-2.6 -0.1,-2.2 -0.1,-4.5 0,-6.7 0,-0.7 0,-1.4 0,-2.1 0.3,-2.3 0.6,-4.5 1,-6.7 0.2,-2.3 0.5,-4.6 0.9,-6.9 0.3,-2.2 0.9,-4.4 1.4,-6.6 0.4,-2 0.8,-4 1.2,-6 0,-0.3 0,-0.6 0,-0.9 0.3,-0.6 0.6,-1.3 1,-2 0.9,-2.9 1.8,-5.9 2.9,-8.8 0.8,-2.1 1.7,-4.2 2.6,-6.3 0.8,-2.1 1.7,-4.1 2.7,-6.1 1,-2 2,-4 3.1,-6 1.1,-2 2.2,-3.9 3.3,-5.8 1.2,-2 2.5,-3.9 3.8,-5.7 1.2,-1.9 2.5,-3.7 3.8,-5.5 1.4,-1.8 2.8,-3.5 4.2,-5.3 1.5,-1.7 3,-3.3 4.6,-5 1.5,-1.6 3.1,-3.2 4.7,-4.8 1.6,-1.6 3.3,-3.1 5,-4.6 1.7,-1.4 3.4,-2.9 5.2,-4.3 1.8,-1.4 3.6,-2.7 5.4,-4.1 1.9,-1.2 3.7,-2.5 5.6,-3.7 1.9,-1.3 3.8,-2.4 5.8,-3.6 1.9,-1.1 3.9,-2.1 5.9,-3.1 2.1,-1 4.1,-2 6.2,-3 2,-0.9 4.1,-1.7 6.2,-2.5 2.1,-0.9 4.2,-1.6 6.4,-2.3 2.1,-0.7 4.3,-1.4 6.5,-2 2.1,-0.5 4.3,-1.1 6.6,-1.6 2.2,-0.4 4.3,-0.9 6.5,-1.2 2.2,-0.4 4.5,-0.7 6.7,-1 2.2,-0.4 4.5,-0.7 6.7,-0.9 2.3,-0.1 4.5,-0.1 6.7,0 0.9,0 1.8,0 2.7,0 2.2,-0.1 4.4,-0.1 6.7,0 0.7,0 1.4,0 2.1,0 2.3,0.3 4.6,0.6 6.8,1 2.3,0.2 4.5,0.5 6.7,0.9 2.2,0.4 4.4,0.8 6.6,1.4 2,0.4 4,0.8 6,1.2 0.3,0 0.6,0 0.9,0 0.7,0.4 1.3,0.7 2,0.9 3,0.9 6,2 8.9,3.1 2.1,0.7 4.2,1.5 6.3,2.5 2,0.9 4.1,1.8 6.2,2.8 2,0.9 4,2 5.9,3.1 2,1.1 4,2.2 5.9,3.3 1.9,1.2 3.8,2.5 5.7,3.7 1.9,1.3 3.7,2.6 5.5,4 1.7,1.4 3.5,2.8 5.2,4.2 1.7,1.5 3.4,2.9 5.1,4.5 1.6,1.5 3.2,3.1 4.7,4.7 1.6,1.6 3.1,3.2 4.6,4.9 1.5,1.7 3,3.5 4.3,5.2 1.4,1.8 2.8,3.6 4.1,5.5 1.3,1.8 2.6,3.6 3.8,5.5 1.2,1.9 2.4,3.9 3.5,5.8 1.1,2 2.1,4 3.2,6 1,2 1.9,4.1 2.9,6.1 0.8,2 1.7,4.1 2.5,6.2 0.8,2.1 1.6,4.3 2.3,6.4 0.7,2.1 1.3,4.3 1.9,6.4 0.6,2.2 1.2,4.4 1.7,6.6 0.5,2.2 0.9,4.4 1.3,6.6 0.4,2.3 0.7,4.5 0.9,6.7 0.4,2.3 0.7,4.5 1,6.8 0,2.2 0,4.4 0,6.6 0,0.9 0,1.8 0,2.6 0,2.3 0,4.6 0,6.9 0,0.7 -0.1,1.4 -0.1,2.1 -0.3,2.3 -0.5,4.6 -0.9,6.8 -0.3,2.3 -0.5,4.5 -0.9,6.7 -0.4,2.2 -0.9,4.5 -1.5,6.7 -0.3,2 -0.7,4 -1.2,5.9 0,0.3 0,0.6 0,0.9 -0.3,0.7 -0.6,1.3 -0.9,2 -0.9,3 -1.9,6 -3,8.8 -0.8,2.2 -1.6,4.3 -2.5,6.4 -0.8,2 -1.8,4.1 -2.7,6.1 -1,2 -2.1,4 -3.2,5.9 -1,2 -2.1,4 -3.3,5.9 -1.2,1.9 -2.4,3.7 -3.7,5.6 -1.3,1.9 -2.6,3.7 -4,5.5 -1.3,1.8 -2.7,3.5 -4.2,5.2 -1.5,1.8 -2.9,3.5 -4.5,5.1 -1.6,1.7 -3.2,3.3 -4.8,4.8 -1.6,1.6 -3.3,3.1 -4.9,4.6 -1.8,1.5 -3.5,2.9 -5.3,4.4 -1.7,1.4 -3.6,2.7 -5.4,4 -1.8,1.3 -3.8,2.6 -5.7,3.8 -1.8,1.2 -3.8,2.4 -5.8,3.5 -1.9,1.1 -3.9,2.2 -5.9,3.2 -2,1 -4.1,2 -6.1,3 -2,0.8 -4.1,1.7 -6.2,2.5 -2.1,0.8 -4.2,1.6 -6.4,2.3 -2.1,0.7 -4.2,1.3 -6.4,1.9 -2.2,0.6 -4.4,1.2 -6.6,1.7 -2.2,0.5 -4.4,0.9 -6.6,1.3 -2.2,0.4 -4.5,0.7 -6.8,1 -2.1,0.3 -4.4,0.6 -6.6,0.9 -2.3,0 -4.5,0 -6.8,0 -0.8,0 -1.7,0 -2.5,0 z"
         style="fill:#ffffff;fill-opacity:1;fill-rule:nonzero;stroke:none"
         id="path26" /><path
         d="m 11924.9,12815 c -2.2,0 -4.5,0 -6.8,0 -0.6,0 -1.3,-0.1 -2,-0.1 -2.3,-0.3 -4.6,-0.6 -6.9,-0.9 -2.2,-0.2 -4.4,-0.6 -6.7,-0.9 -2.2,-0.4 -4.4,-0.9 -6.6,-1.5 -2,-0.3 -4,-0.7 -6,-1.2 -0.3,0 -0.6,0 -0.9,0 -0.6,-0.3 -1.3,-0.6 -2,-0.9 -2.9,-0.9 -5.9,-1.9 -8.8,-3 -2.1,-0.8 -4.2,-1.6 -6.2,-2.5 -2.1,-0.9 -4.2,-1.8 -6.2,-2.8 -2,-1 -4,-2.1 -6,-3.1 -1.9,-1.1 -3.9,-2.2 -5.9,-3.4 -1.8,-1.2 -3.7,-2.4 -5.5,-3.7 -1.9,-1.3 -3.7,-2.6 -5.5,-4 -1.8,-1.3 -3.6,-2.7 -5.2,-4.2 -1.8,-1.5 -3.4,-3 -5.1,-4.5 -1.6,-1.5 -3.2,-3.1 -4.8,-4.8 -1.5,-1.6 -3.1,-3.3 -4.6,-4.9 -1.5,-1.7 -2.9,-3.5 -4.3,-5.3 -1.4,-1.7 -2.8,-3.5 -4.1,-5.4 -1.3,-1.8 -2.5,-3.7 -3.7,-5.6 -1.3,-1.9 -2.4,-3.8 -3.6,-5.7 -1.1,-2 -2.1,-4 -3.1,-6 -1,-2 -2,-4.1 -2.9,-6.1 -0.9,-2.1 -1.8,-4.2 -2.6,-6.3 -0.8,-2.1 -1.6,-4.2 -2.3,-6.3 -0.7,-2.2 -1.4,-4.3 -2,-6.5 -0.5,-2.2 -1.1,-4.3 -1.6,-6.5 -0.5,-2.2 -0.9,-4.5 -1.2,-6.7 -0.4,-2.2 -0.7,-4.4 -1,-6.6 -0.4,-2.3 -0.7,-4.5 -0.9,-6.8 -0.1,-2.2 -0.1,-4.5 0,-6.7 -0.1,-0.8 -0.1,-1.7 0,-2.6 -0.1,-2.2 -0.1,-4.5 0,-6.7 0,-0.7 0,-1.4 0,-2.1 0.3,-2.3 0.6,-4.5 1,-6.7 0.2,-2.3 0.5,-4.6 0.9,-6.9 0.3,-2.2 0.9,-4.4 1.4,-6.6 0.4,-2 0.8,-4 1.2,-6 0,-0.3 0,-0.6 0,-0.9 0.3,-0.6 0.6,-1.3 1,-2 0.9,-2.9 1.8,-5.9 2.9,-8.8 0.8,-2.1 1.7,-4.2 2.6,-6.3 0.8,-2.1 1.7,-4.1 2.7,-6.1 1,-2 2,-4 3.1,-6 1.1,-2 2.2,-3.9 3.3,-5.8 1.2,-2 2.5,-3.9 3.8,-5.7 1.2,-1.9 2.5,-3.7 3.8,-5.5 1.4,-1.8 2.8,-3.5 4.2,-5.3 1.5,-1.7 3,-3.3 4.6,-5 1.5,-1.6 3.1,-3.2 4.7,-4.8 1.6,-1.6 3.3,-3.1 5,-4.6 1.7,-1.4 3.4,-2.9 5.2,-4.3 1.8,-1.4 3.6,-2.7 5.4,-4.1 1.9,-1.2 3.7,-2.5 5.6,-3.7 1.9,-1.3 3.8,-2.4 5.8,-3.6 1.9,-1.1 3.9,-2.1 5.9,-3.1 2.1,-1 4.1,-2 6.2,-3 2,-0.9 4.1,-1.7 6.2,-2.5 2.1,-0.9 4.2,-1.6 6.4,-2.3 2.1,-0.7 4.3,-1.4 6.5,-2 2.1,-0.5 4.3,-1.1 6.6,-1.6 2.2,-0.4 4.3,-0.9 6.5,-1.2 2.2,-0.4 4.5,-0.7 6.7,-1 2.2,-0.4 4.5,-0.7 6.7,-0.9 2.3,-0.1 4.5,-0.1 6.7,0 0.9,0 1.8,0 2.7,0 2.2,-0.1 4.4,-0.1 6.7,0 0.7,0 1.4,0 2.1,0 2.3,0.3 4.6,0.6 6.8,1 2.3,0.2 4.5,0.5 6.7,0.9 2.2,0.4 4.4,0.8 6.6,1.4 2,0.4 4,0.8 6,1.2 0.3,0 0.6,0 0.9,0 0.7,0.4 1.3,0.7 2,0.9 3,0.9 6,2 8.9,3.1 2.1,0.7 4.2,1.5 6.3,2.5 2,0.9 4.1,1.8 6.2,2.8 2,0.9 4,2 5.9,3.1 2,1.1 4,2.2 5.9,3.3 1.9,1.2 3.8,2.5 5.7,3.7 1.9,1.3 3.7,2.6 5.5,4 1.7,1.4 3.5,2.8 5.2,4.2 1.7,1.5 3.4,2.9 5.1,4.5 1.6,1.5 3.2,3.1 4.7,4.7 1.6,1.6 3.1,3.2 4.6,4.9 1.5,1.7 3,3.5 4.3,5.2 1.4,1.8 2.8,3.6 4.1,5.5 1.3,1.8 2.6,3.6 3.8,5.5 1.2,1.9 2.4,3.9 3.5,5.8 1.1,2 2.1,4 3.2,6 1,2 1.9,4.1 2.9,6.1 0.8,2 1.7,4.1 2.5,6.2 0.8,2.1 1.6,4.3 2.3,6.4 0.7,2.1 1.3,4.3 1.9,6.4 0.6,2.2 1.2,4.4 1.7,6.6 0.5,2.2 0.9,4.4 1.3,6.6 0.4,2.3 0.7,4.5 0.9,6.7 0.4,2.3 0.7,4.5 1,6.8 0,2.2 0,4.4 0,6.6 0,0.9 0,1.8 0,2.6 0,2.3 0,4.6 0,6.9 0,0.7 -0.1,1.4 -0.1,2.1 -0.3,2.3 -0.5,4.6 -0.9,6.8 -0.3,2.3 -0.5,4.5 -0.9,6.7 -0.4,2.2 -0.9,4.5 -1.5,6.7 -0.3,2 -0.7,4 -1.2,5.9 0,0.3 0,0.6 0,0.9 -0.3,0.7 -0.6,1.3 -0.9,2 -0.9,3 -1.9,6 -3,8.8 -0.8,2.2 -1.6,4.3 -2.5,6.4 -0.8,2 -1.8,4.1 -2.7,6.1 -1,2 -2.1,4 -3.2,5.9 -1,2 -2.1,4 -3.3,5.9 -1.2,1.9 -2.4,3.7 -3.7,5.6 -1.3,1.9 -2.6,3.7 -4,5.5 -1.3,1.8 -2.7,3.5 -4.2,5.2 -1.5,1.8 -2.9,3.5 -4.5,5.1 -1.6,1.7 -3.2,3.3 -4.8,4.8 -1.6,1.6 -3.3,3.1 -4.9,4.6 -1.8,1.5 -3.5,2.9 -5.3,4.4 -1.7,1.4 -3.6,2.7 -5.4,4 -1.8,1.3 -3.8,2.6 -5.7,3.8 -1.8,1.2 -3.8,2.4 -5.8,3.5 -1.9,1.1 -3.9,2.2 -5.9,3.2 -2,1 -4.1,2 -6.1,3 -2,0.8 -4.1,1.7 -6.2,2.5 -2.1,0.8 -4.2,1.6 -6.4,2.3 -2.1,0.7 -4.2,1.3 -6.4,1.9 -2.2,0.6 -4.4,1.2 -6.6,1.7 -2.2,0.5 -4.4,0.9 -6.6,1.3 -2.2,0.4 -4.5,0.7 -6.8,1 -2.1,0.3 -4.4,0.6 -6.6,0.9 -2.3,0 -4.5,0 -6.8,0 -0.8,0 -1.7,0 -2.5,0 z"
         style="fill:#ffffff;fill-opacity:1;fill-rule:nonzero;stroke:none"
         id="path28" /><path
         d="m 11924.9,12815 c -2.2,0 -4.5,0 -6.8,0 -0.6,0 -1.3,-0.1 -2,-0.1 -2.3,-0.3 -4.6,-0.6 -6.9,-0.9 -2.2,-0.2 -4.4,-0.6 -6.7,-0.9 -2.2,-0.4 -4.4,-0.9 -6.6,-1.5 -2,-0.3 -4,-0.7 -6,-1.2 -0.3,0 -0.6,0 -0.9,0 -0.6,-0.3 -1.3,-0.6 -2,-0.9 -2.9,-0.9 -5.9,-1.9 -8.8,-3 -2.1,-0.8 -4.2,-1.6 -6.2,-2.5 -2.1,-0.9 -4.2,-1.8 -6.2,-2.8 -2,-1 -4,-2.1 -6,-3.1 -1.9,-1.1 -3.9,-2.2 -5.9,-3.4 -1.8,-1.2 -3.7,-2.4 -5.5,-3.7 -1.9,-1.3 -3.7,-2.6 -5.5,-4 -1.8,-1.3 -3.6,-2.7 -5.2,-4.2 -1.8,-1.5 -3.4,-3 -5.1,-4.5 -1.6,-1.5 -3.2,-3.1 -4.8,-4.8 -1.5,-1.6 -3.1,-3.3 -4.6,-4.9 -1.5,-1.7 -2.9,-3.5 -4.3,-5.3 -1.4,-1.7 -2.8,-3.5 -4.1,-5.4 -1.3,-1.8 -2.5,-3.7 -3.7,-5.6 -1.3,-1.9 -2.4,-3.8 -3.6,-5.7 -1.1,-2 -2.1,-4 -3.1,-6 -1,-2 -2,-4.1 -2.9,-6.1 -0.9,-2.1 -1.8,-4.2 -2.6,-6.3 -0.8,-2.1 -1.6,-4.2 -2.3,-6.3 -0.7,-2.2 -1.4,-4.3 -2,-6.5 -0.5,-2.2 -1.1,-4.3 -1.6,-6.5 -0.5,-2.2 -0.9,-4.5 -1.2,-6.7 -0.4,-2.2 -0.7,-4.4 -1,-6.6 -0.4,-2.3 -0.7,-4.5 -0.9,-6.8 -0.1,-2.2 -0.1,-4.5 0,-6.7 -0.1,-0.8 -0.1,-1.7 0,-2.6 -0.1,-2.2 -0.1,-4.5 0,-6.7 0,-0.7 0,-1.4 0,-2.1 0.3,-2.3 0.6,-4.5 1,-6.7 0.2,-2.3 0.5,-4.6 0.9,-6.9 0.3,-2.2 0.9,-4.4 1.4,-6.6 0.4,-2 0.8,-4 1.2,-6 0,-0.3 0,-0.6 0,-0.9 0.3,-0.6 0.6,-1.3 1,-2 0.9,-2.9 1.8,-5.9 2.9,-8.8 0.8,-2.1 1.7,-4.2 2.6,-6.3 0.8,-2.1 1.7,-4.1 2.7,-6.1 1,-2 2,-4 3.1,-6 1.1,-2 2.2,-3.9 3.3,-5.8 1.2,-2 2.5,-3.9 3.8,-5.7 1.2,-1.9 2.5,-3.7 3.8,-5.5 1.4,-1.8 2.8,-3.5 4.2,-5.3 1.5,-1.7 3,-3.3 4.6,-5 1.5,-1.6 3.1,-3.2 4.7,-4.8 1.6,-1.6 3.3,-3.1 5,-4.6 1.7,-1.4 3.4,-2.9 5.2,-4.3 1.8,-1.4 3.6,-2.7 5.4,-4.1 1.9,-1.2 3.7,-2.5 5.6,-3.7 1.9,-1.3 3.8,-2.4 5.8,-3.6 1.9,-1.1 3.9,-2.1 5.9,-3.1 2.1,-1 4.1,-2 6.2,-3 2,-0.9 4.1,-1.7 6.2,-2.5 2.1,-0.9 4.2,-1.6 6.4,-2.3 2.1,-0.7 4.3,-1.4 6.5,-2 2.1,-0.5 4.3,-1.1 6.6,-1.6 2.2,-0.4 4.3,-0.9 6.5,-1.2 2.2,-0.4 4.5,-0.7 6.7,-1 2.2,-0.4 4.5,-0.7 6.7,-0.9 2.3,-0.1 4.5,-0.1 6.7,0 0.9,0 1.8,0 2.7,0 2.2,-0.1 4.4,-0.1 6.7,0 0.7,0 1.4,0 2.1,0 2.3,0.3 4.6,0.6 6.8,1 2.3,0.2 4.5,0.5 6.7,0.9 2.2,0.4 4.4,0.8 6.6,1.4 2,0.4 4,0.8 6,1.2 0.3,0 0.6,0 0.9,0 0.7,0.4 1.3,0.7 2,0.9 3,0.9 6,2 8.9,3.1 2.1,0.7 4.2,1.5 6.3,2.5 2,0.9 4.1,1.8 6.2,2.8 2,0.9 4,2 5.9,3.1 2,1.1 4,2.2 5.9,3.3 1.9,1.2 3.8,2.5 5.7,3.7 1.9,1.3 3.7,2.6 5.5,4 1.7,1.4 3.5,2.8 5.2,4.2 1.7,1.5 3.4,2.9 5.1,4.5 1.6,1.5 3.2,3.1 4.7,4.7 1.6,1.6 3.1,3.2 4.6,4.9 1.5,1.7 3,3.5 4.3,5.2 1.4,1.8 2.8,3.6 4.1,5.5 1.3,1.8 2.6,3.6 3.8,5.5 1.2,1.9 2.4,3.9 3.5,5.8 1.1,2 2.1,4 3.2,6 1,2 1.9,4.1 2.9,6.1 0.8,2 1.7,4.1 2.5,6.2 0.8,2.1 1.6,4.3 2.3,6.4 0.7,2.1 1.3,4.3 1.9,6.4 0.6,2.2 1.2,4.4 1.7,6.6 0.5,2.2 0.9,4.4 1.3,6.6 0.4,2.3 0.7,4.5 0.9,6.7 0.4,2.3 0.7,4.5 1,6.8 0,2.2 0,4.4 0,6.6 0,0.9 0,1.8 0,2.6 0,2.3 0,4.6 0,6.9 0,0.7 -0.1,1.4 -0.1,2.1 -0.3,2.3 -0.5,4.6 -0.9,6.8 -0.3,2.3 -0.5,4.5 -0.9,6.7 -0.4,2.2 -0.9,4.5 -1.5,6.7 -0.3,2 -0.7,4 -1.2,5.9 0,0.3 0,0.6 0,0.9 -0.3,0.7 -0.6,1.3 -0.9,2 -0.9,3 -1.9,6 -3,8.8 -0.8,2.2 -1.6,4.3 -2.5,6.4 -0.8,2 -1.8,4.1 -2.7,6.1 -1,2 -2.1,4 -3.2,5.9 -1,2 -2.1,4 -3.3,5.9 -1.2,1.9 -2.4,3.7 -3.7,5.6 -1.3,1.9 -2.6,3.7 -4,5.5 -1.3,1.8 -2.7,3.5 -4.2,5.2 -1.5,1.8 -2.9,3.5 -4.5,5.1 -1.6,1.7 -3.2,3.3 -4.8,4.8 -1.6,1.6 -3.3,3.1 -4.9,4.6 -1.8,1.5 -3.5,2.9 -5.3,4.4 -1.7,1.4 -3.6,2.7 -5.4,4 -1.8,1.3 -3.8,2.6 -5.7,3.8 -1.8,1.2 -3.8,2.4 -5.8,3.5 -1.9,1.1 -3.9,2.2 -5.9,3.2 -2,1 -4.1,2 -6.1,3 -2,0.8 -4.1,1.7 -6.2,2.5 -2.1,0.8 -4.2,1.6 -6.4,2.3 -2.1,0.7 -4.2,1.3 -6.4,1.9 -2.2,0.6 -4.4,1.2 -6.6,1.7 -2.2,0.5 -4.4,0.9 -6.6,1.3 -2.2,0.4 -4.5,0.7 -6.8,1 -2.1,0.3 -4.4,0.6 -6.6,0.9 -2.3,0 -4.5,0 -6.8,0 -0.8,0 -1.7,0 -2.5,0 z"
         style="fill:#ffffff;fill-opacity:1;fill-rule:nonzero;stroke:none"
         id="path30" /><path
         d="m 11924.9,12815 c -2.2,0 -4.5,0 -6.8,0 -0.6,0 -1.3,-0.1 -2,-0.1 -2.3,-0.3 -4.6,-0.6 -6.9,-0.9 -2.2,-0.2 -4.4,-0.6 -6.7,-0.9 -2.2,-0.4 -4.4,-0.9 -6.6,-1.5 -2,-0.3 -4,-0.7 -6,-1.2 -0.3,0 -0.6,0 -0.9,0 -0.6,-0.3 -1.3,-0.6 -2,-0.9 -2.9,-0.9 -5.9,-1.9 -8.8,-3 -2.1,-0.8 -4.2,-1.6 -6.2,-2.5 -2.1,-0.9 -4.2,-1.8 -6.2,-2.8 -2,-1 -4,-2.1 -6,-3.1 -1.9,-1.1 -3.9,-2.2 -5.9,-3.4 -1.8,-1.2 -3.7,-2.4 -5.5,-3.7 -1.9,-1.3 -3.7,-2.6 -5.5,-4 -1.8,-1.3 -3.6,-2.7 -5.2,-4.2 -1.8,-1.5 -3.4,-3 -5.1,-4.5 -1.6,-1.5 -3.2,-3.1 -4.8,-4.8 -1.5,-1.6 -3.1,-3.3 -4.6,-4.9 -1.5,-1.7 -2.9,-3.5 -4.3,-5.3 -1.4,-1.7 -2.8,-3.5 -4.1,-5.4 -1.3,-1.8 -2.5,-3.7 -3.7,-5.6 -1.3,-1.9 -2.4,-3.8 -3.6,-5.7 -1.1,-2 -2.1,-4 -3.1,-6 -1,-2 -2,-4.1 -2.9,-6.1 -0.9,-2.1 -1.8,-4.2 -2.6,-6.3 -0.8,-2.1 -1.6,-4.2 -2.3,-6.3 -0.7,-2.2 -1.4,-4.3 -2,-6.5 -0.5,-2.2 -1.1,-4.3 -1.6,-6.5 -0.5,-2.2 -0.9,-4.5 -1.2,-6.7 -0.4,-2.2 -0.7,-4.4 -1,-6.6 -0.4,-2.3 -0.7,-4.5 -0.9,-6.8 -0.1,-2.2 -0.1,-4.5 0,-6.7 -0.1,-0.8 -0.1,-1.7 0,-2.6 -0.1,-2.2 -0.1,-4.5 0,-6.7 0,-0.7 0,-1.4 0,-2.1 0.3,-2.3 0.6,-4.5 1,-6.7 0.2,-2.3 0.5,-4.6 0.9,-6.9 0.3,-2.2 0.9,-4.4 1.4,-6.6 0.4,-2 0.8,-4 1.2,-6 0,-0.3 0,-0.6 0,-0.9 0.3,-0.6 0.6,-1.3 1,-2 0.9,-2.9 1.8,-5.9 2.9,-8.8 0.8,-2.1 1.7,-4.2 2.6,-6.3 0.8,-2.1 1.7,-4.1 2.7,-6.1 1,-2 2,-4 3.1,-6 1.1,-2 2.2,-3.9 3.3,-5.8 1.2,-2 2.5,-3.9 3.8,-5.7 1.2,-1.9 2.5,-3.7 3.8,-5.5 1.4,-1.8 2.8,-3.5 4.2,-5.3 1.5,-1.7 3,-3.3 4.6,-5 1.5,-1.6 3.1,-3.2 4.7,-4.8 1.6,-1.6 3.3,-3.1 5,-4.6 1.7,-1.4 3.4,-2.9 5.2,-4.3 1.8,-1.4 3.6,-2.7 5.4,-4.1 1.9,-1.2 3.7,-2.5 5.6,-3.7 1.9,-1.3 3.8,-2.4 5.8,-3.6 1.9,-1.1 3.9,-2.1 5.9,-3.1 2.1,-1 4.1,-2 6.2,-3 2,-0.9 4.1,-1.7 6.2,-2.5 2.1,-0.9 4.2,-1.6 6.4,-2.3 2.1,-0.7 4.3,-1.4 6.5,-2 2.1,-0.5 4.3,-1.1 6.6,-1.6 2.2,-0.4 4.3,-0.9 6.5,-1.2 2.2,-0.4 4.5,-0.7 6.7,-1 2.2,-0.4 4.5,-0.7 6.7,-0.9 2.3,-0.1 4.5,-0.1 6.7,0 0.9,0 1.8,0 2.7,0 2.2,-0.1 4.4,-0.1 6.7,0 0.7,0 1.4,0 2.1,0 2.3,0.3 4.6,0.6 6.8,1 2.3,0.2 4.5,0.5 6.7,0.9 2.2,0.4 4.4,0.8 6.6,1.4 2,0.4 4,0.8 6,1.2 0.3,0 0.6,0 0.9,0 0.7,0.4 1.3,0.7 2,0.9 3,0.9 6,2 8.9,3.1 2.1,0.7 4.2,1.5 6.3,2.5 2,0.9 4.1,1.8 6.2,2.8 2,0.9 4,2 5.9,3.1 2,1.1 4,2.2 5.9,3.3 1.9,1.2 3.8,2.5 5.7,3.7 1.9,1.3 3.7,2.6 5.5,4 1.7,1.4 3.5,2.8 5.2,4.2 1.7,1.5 3.4,2.9 5.1,4.5 1.6,1.5 3.2,3.1 4.7,4.7 1.6,1.6 3.1,3.2 4.6,4.9 1.5,1.7 3,3.5 4.3,5.2 1.4,1.8 2.8,3.6 4.1,5.5 1.3,1.8 2.6,3.6 3.8,5.5 1.2,1.9 2.4,3.9 3.5,5.8 1.1,2 2.1,4 3.2,6 1,2 1.9,4.1 2.9,6.1 0.8,2 1.7,4.1 2.5,6.2 0.8,2.1 1.6,4.3 2.3,6.4 0.7,2.1 1.3,4.3 1.9,6.4 0.6,2.2 1.2,4.4 1.7,6.6 0.5,2.2 0.9,4.4 1.3,6.6 0.4,2.3 0.7,4.5 0.9,6.7 0.4,2.3 0.7,4.5 1,6.8 0,2.2 0,4.4 0,6.6 0,0.9 0,1.8 0,2.6 0,2.3 0,4.6 0,6.9 0,0.7 -0.1,1.4 -0.1,2.1 -0.3,2.3 -0.5,4.6 -0.9,6.8 -0.3,2.3 -0.5,4.5 -0.9,6.7 -0.4,2.2 -0.9,4.5 -1.5,6.7 -0.3,2 -0.7,4 -1.2,5.9 0,0.3 0,0.6 0,0.9 -0.3,0.7 -0.6,1.3 -0.9,2 -0.9,3 -1.9,6 -3,8.8 -0.8,2.2 -1.6,4.3 -2.5,6.4 -0.8,2 -1.8,4.1 -2.7,6.1 -1,2 -2.1,4 -3.2,5.9 -1,2 -2.1,4 -3.3,5.9 -1.2,1.9 -2.4,3.7 -3.7,5.6 -1.3,1.9 -2.6,3.7 -4,5.5 -1.3,1.8 -2.7,3.5 -4.2,5.2 -1.5,1.8 -2.9,3.5 -4.5,5.1 -1.6,1.7 -3.2,3.3 -4.8,4.8 -1.6,1.6 -3.3,3.1 -4.9,4.6 -1.8,1.5 -3.5,2.9 -5.3,4.4 -1.7,1.4 -3.6,2.7 -5.4,4 -1.8,1.3 -3.8,2.6 -5.7,3.8 -1.8,1.2 -3.8,2.4 -5.8,3.5 -1.9,1.1 -3.9,2.2 -5.9,3.2 -2,1 -4.1,2 -6.1,3 -2,0.8 -4.1,1.7 -6.2,2.5 -2.1,0.8 -4.2,1.6 -6.4,2.3 -2.1,0.7 -4.2,1.3 -6.4,1.9 -2.2,0.6 -4.4,1.2 -6.6,1.7 -2.2,0.5 -4.4,0.9 -6.6,1.3 -2.2,0.4 -4.5,0.7 -6.8,1 -2.1,0.3 -4.4,0.6 -6.6,0.9 -2.3,0 -4.5,0 -6.8,0 -0.8,0 -1.7,0 -2.5,0 z"
         style="fill:#ffffff;fill-opacity:1;fill-rule:nonzero;stroke:none"
         id="path32" /><path
         d="m 11924.9,12815 c -2.2,0 -4.5,0 -6.8,0 -0.6,0 -1.3,-0.1 -2,-0.1 -2.3,-0.3 -4.6,-0.6 -6.9,-0.9 -2.2,-0.2 -4.4,-0.6 -6.7,-0.9 -2.2,-0.4 -4.4,-0.9 -6.6,-1.5 -2,-0.3 -4,-0.7 -6,-1.2 -0.3,0 -0.6,0 -0.9,0 -0.6,-0.3 -1.3,-0.6 -2,-0.9 -2.9,-0.9 -5.9,-1.9 -8.8,-3 -2.1,-0.8 -4.2,-1.6 -6.2,-2.5 -2.1,-0.9 -4.2,-1.8 -6.2,-2.8 -2,-1 -4,-2.1 -6,-3.1 -1.9,-1.1 -3.9,-2.2 -5.9,-3.4 -1.8,-1.2 -3.7,-2.4 -5.5,-3.7 -1.9,-1.3 -3.7,-2.6 -5.5,-4 -1.8,-1.3 -3.6,-2.7 -5.2,-4.2 -1.8,-1.5 -3.4,-3 -5.1,-4.5 -1.6,-1.5 -3.2,-3.1 -4.8,-4.8 -1.5,-1.6 -3.1,-3.3 -4.6,-4.9 -1.5,-1.7 -2.9,-3.5 -4.3,-5.3 -1.4,-1.7 -2.8,-3.5 -4.1,-5.4 -1.3,-1.8 -2.5,-3.7 -3.7,-5.6 -1.3,-1.9 -2.4,-3.8 -3.6,-5.7 -1.1,-2 -2.1,-4 -3.1,-6 -1,-2 -2,-4.1 -2.9,-6.1 -0.9,-2.1 -1.8,-4.2 -2.6,-6.3 -0.8,-2.1 -1.6,-4.2 -2.3,-6.3 -0.7,-2.2 -1.4,-4.3 -2,-6.5 -0.5,-2.2 -1.1,-4.3 -1.6,-6.5 -0.5,-2.2 -0.9,-4.5 -1.2,-6.7 -0.4,-2.2 -0.7,-4.4 -1,-6.6 -0.4,-2.3 -0.7,-4.5 -0.9,-6.8 -0.1,-2.2 -0.1,-4.5 0,-6.7 -0.1,-0.8 -0.1,-1.7 0,-2.6 -0.1,-2.2 -0.1,-4.5 0,-6.7 0,-0.7 0,-1.4 0,-2.1 0.3,-2.3 0.6,-4.5 1,-6.7 0.2,-2.3 0.5,-4.6 0.9,-6.9 0.3,-2.2 0.9,-4.4 1.4,-6.6 0.4,-2 0.8,-4 1.2,-6 0,-0.3 0,-0.6 0,-0.9 0.3,-0.6 0.6,-1.3 1,-2 0.9,-2.9 1.8,-5.9 2.9,-8.8 0.8,-2.1 1.7,-4.2 2.6,-6.3 0.8,-2.1 1.7,-4.1 2.7,-6.1 1,-2 2,-4 3.1,-6 1.1,-2 2.2,-3.9 3.3,-5.8 1.2,-2 2.5,-3.9 3.8,-5.7 1.2,-1.9 2.5,-3.7 3.8,-5.5 1.4,-1.8 2.8,-3.5 4.2,-5.3 1.5,-1.7 3,-3.3 4.6,-5 1.5,-1.6 3.1,-3.2 4.7,-4.8 1.6,-1.6 3.3,-3.1 5,-4.6 1.7,-1.4 3.4,-2.9 5.2,-4.3 1.8,-1.4 3.6,-2.7 5.4,-4.1 1.9,-1.2 3.7,-2.5 5.6,-3.7 1.9,-1.3 3.8,-2.4 5.8,-3.6 1.9,-1.1 3.9,-2.1 5.9,-3.1 2.1,-1 4.1,-2 6.2,-3 2,-0.9 4.1,-1.7 6.2,-2.5 2.1,-0.9 4.2,-1.6 6.4,-2.3 2.1,-0.7 4.3,-1.4 6.5,-2 2.1,-0.5 4.3,-1.1 6.6,-1.6 2.2,-0.4 4.3,-0.9 6.5,-1.2 2.2,-0.4 4.5,-0.7 6.7,-1 2.2,-0.4 4.5,-0.7 6.7,-0.9 2.3,-0.1 4.5,-0.1 6.7,0 0.9,0 1.8,0 2.7,0 2.2,-0.1 4.4,-0.1 6.7,0 0.7,0 1.4,0 2.1,0 2.3,0.3 4.6,0.6 6.8,1 2.3,0.2 4.5,0.5 6.7,0.9 2.2,0.4 4.4,0.8 6.6,1.4 2,0.4 4,0.8 6,1.2 0.3,0 0.6,0 0.9,0 0.7,0.4 1.3,0.7 2,0.9 3,0.9 6,2 8.9,3.1 2.1,0.7 4.2,1.5 6.3,2.5 2,0.9 4.1,1.8 6.2,2.8 2,0.9 4,2 5.9,3.1 2,1.1 4,2.2 5.9,3.3 1.9,1.2 3.8,2.5 5.7,3.7 1.9,1.3 3.7,2.6 5.5,4 1.7,1.4 3.5,2.8 5.2,4.2 1.7,1.5 3.4,2.9 5.1,4.5 1.6,1.5 3.2,3.1 4.7,4.7 1.6,1.6 3.1,3.2 4.6,4.9 1.5,1.7 3,3.5 4.3,5.2 1.4,1.8 2.8,3.6 4.1,5.5 1.3,1.8 2.6,3.6 3.8,5.5 1.2,1.9 2.4,3.9 3.5,5.8 1.1,2 2.1,4 3.2,6 1,2 1.9,4.1 2.9,6.1 0.8,2 1.7,4.1 2.5,6.2 0.8,2.1 1.6,4.3 2.3,6.4 0.7,2.1 1.3,4.3 1.9,6.4 0.6,2.2 1.2,4.4 1.7,6.6 0.5,2.2 0.9,4.4 1.3,6.6 0.4,2.3 0.7,4.5 0.9,6.7 0.4,2.3 0.7,4.5 1,6.8 0,2.2 0,4.4 0,6.6 0,0.9 0,1.8 0,2.6 0,2.3 0,4.6 0,6.9 0,0.7 -0.1,1.4 -0.1,2.1 -0.3,2.3 -0.5,4.6 -0.9,6.8 -0.3,2.3 -0.5,4.5 -0.9,6.7 -0.4,2.2 -0.9,4.5 -1.5,6.7 -0.3,2 -0.7,4 -1.2,5.9 0,0.3 0,0.6 0,0.9 -0.3,0.7 -0.6,1.3 -0.9,2 -0.9,3 -1.9,6 -3,8.8 -0.8,2.2 -1.6,4.3 -2.5,6.4 -0.8,2 -1.8,4.1 -2.7,6.1 -1,2 -2.1,4 -3.2,5.9 -1,2 -2.1,4 -3.3,5.9 -1.2,1.9 -2.4,3.7 -3.7,5.6 -1.3,1.9 -2.6,3.7 -4,5.5 -1.3,1.8 -2.7,3.5 -4.2,5.2 -1.5,1.8 -2.9,3.5 -4.5,5.1 -1.6,1.7 -3.2,3.3 -4.8,4.8 -1.6,1.6 -3.3,3.1 -4.9,4.6 -1.8,1.5 -3.5,2.9 -5.3,4.4 -1.7,1.4 -3.6,2.7 -5.4,4 -1.8,1.3 -3.8,2.6 -5.7,3.8 -1.8,1.2 -3.8,2.4 -5.8,3.5 -1.9,1.1 -3.9,2.2 -5.9,3.2 -2,1 -4.1,2 -6.1,3 -2,0.8 -4.1,1.7 -6.2,2.5 -2.1,0.8 -4.2,1.6 -6.4,2.3 -2.1,0.7 -4.2,1.3 -6.4,1.9 -2.2,0.6 -4.4,1.2 -6.6,1.7 -2.2,0.5 -4.4,0.9 -6.6,1.3 -2.2,0.4 -4.5,0.7 -6.8,1 -2.1,0.3 -4.4,0.6 -6.6,0.9 -2.3,0 -4.5,0 -6.8,0 -0.8,0 -1.7,0 -2.5,0 z"
         style="fill:#ffffff;fill-opacity:1;fill-rule:nonzero;stroke:none"
         id="path34" /><path
         d="m 15111.7,5808.4 c 0,-211.29 -335.7,-413.91 -933.3,-563.32 -597.6,-149.42 -1408.2,-233.32 -2253.3,-233.32 -1759.9,0 -3186.62,356.64 -3186.62,796.64 0,440 1426.72,796.64 3186.62,796.64 845.1,0 1655.7,-83.91 2253.3,-233.32 597.6,-149.42 933.3,-352.03 933.3,-563.32 z"
         style="fill:#cccccc;fill-opacity:1;fill-rule:nonzero;stroke:none"
         id="path36" /><path
         d="m 10995.4,7893.12 c 0,-816.91 -272.5,-1978.2 -608.6,-1978.2 -336,0 -608.44,1161.29 -608.44,1978.2 0,816.92 359.74,980.12 608.44,980.12 248.9,0 608.6,-163.2 608.6,-980.12 z"
         style="fill:#b1b1b1;fill-opacity:1;fill-rule:nonzero;stroke:none"
         id="path38" /><path
         d="m 10386.9,9043.05 c -161.6,0 -371.1,-59.5 -527.17,-243.79 -156.1,-184.3 -251.18,-472.74 -251.18,-906.14 0,-427.34 69.3,-930.7 184.54,-1341.32 57.61,-205.32 125.54,-386.72 211.21,-529.89 85.7,-143.12 200.7,-276.79 382.6,-276.79 181.8,0 296.9,133.67 382.5,276.79 85.7,143.17 153.6,324.57 211.2,529.89 115.3,410.62 184.6,913.98 184.6,1341.32 0,433.36 -95.1,721.84 -251.2,906.14 -156.1,184.29 -365.6,243.79 -527.1,243.79 z m 0,-339.65 c 87.2,0 182,-22.11 267.9,-123.63 86,-101.53 170.8,-303.13 170.8,-686.65 0,-389.57 -67,-875.31 -172,-1249.57 -52.5,-187.1 -115.7,-347.1 -175.6,-447.18 -44.9,-75.12 -81.5,-100.35 -91.1,-108.28 -9.7,7.93 -46.2,33.16 -91.2,108.28 -59.9,100.08 -123.1,260.08 -175.6,447.18 -105,374.26 -171.94,860 -171.94,1249.57 0,383.52 84.74,585.12 170.74,686.65 86,101.52 180.7,123.63 268,123.63 z"
         style="fill:#1a1a1a;fill-opacity:1;fill-rule:nonzero;stroke:none"
         id="path40" /><path
         d="m 14071.8,7893.12 c 0,-816.91 -272.4,-1978.2 -608.5,-1978.2 -336,0 -608.5,1161.29 -608.5,1978.2 0,816.92 359.7,980.12 608.5,980.12 248.8,0 608.5,-163.2 608.5,-980.12 z"
         style="fill:#b1b1b1;fill-opacity:1;fill-rule:nonzero;stroke:none"
         id="path42" /><path
         d="m 13463.3,9043.05 c -161.5,0 -371.1,-59.5 -527.1,-243.79 -156.1,-184.3 -251.2,-472.74 -251.2,-906.14 0,-427.34 69.3,-930.7 184.5,-1341.32 57.6,-205.32 125.6,-386.72 211.2,-529.89 85.7,-143.12 200.8,-276.79 382.6,-276.79 181.8,0 296.9,133.67 382.6,276.79 85.7,143.17 153.6,324.57 211.2,529.89 115.2,410.62 184.5,913.98 184.5,1341.32 0,433.36 -95.1,721.84 -251.1,906.14 -156.1,184.29 -365.7,243.79 -527.2,243.79 z m 0,-339.65 c 87.3,0 182,-22.11 268,-123.63 85.9,-101.53 170.7,-303.13 170.7,-686.65 0,-389.57 -66.9,-875.31 -171.9,-1249.57 -52.5,-187.1 -115.7,-347.1 -175.7,-447.18 -44.9,-75.12 -81.4,-100.35 -91.1,-108.28 -9.6,7.93 -46.2,33.16 -91.1,108.28 -59.9,100.08 -123.1,260.08 -175.7,447.18 -105,374.26 -171.9,860 -171.9,1249.57 0,383.52 84.8,585.12 170.8,686.65 85.9,101.52 180.6,123.63 267.9,123.63 z"
         style="fill:#1a1a1a;fill-opacity:1;fill-rule:nonzero;stroke:none"
         id="path44" /><path
         d="m 8062.85,11869.6 c -312.62,-754.7 -1008.71,-1723.3 -1319.18,-1594.7 -310.47,128.6 -117.77,1305.7 194.85,2060.5 312.61,754.7 707.34,767.8 937.22,672.6 229.88,-95.2 499.73,-383.6 187.11,-1138.4 z"
         style="fill:#ff4d3a;fill-opacity:1;fill-rule:nonzero;stroke:none"
         id="path46" /><path
         d="m 7940.74,13164.9 c -149.26,61.8 -365.58,87 -580.31,-23.5 -214.73,-110.6 -412.97,-340.7 -578.83,-741 -163.51,-394.8 -292.11,-886.5 -342.81,-1309.9 -25.31,-211.7 -31.99,-405.3 -7.62,-570.4 24.38,-165 79.53,-332.5 247.5,-402.1 167.97,-69.6 325.43,9.9 459.38,109.3 133.94,99.5 266.09,241.1 397.89,408.8 263.59,335.2 520.27,773.7 683.83,1168.5 165.82,400.4 188.35,703.3 114.68,933.3 -73.67,230 -244.49,365.2 -393.71,427 z m -129.96,-313.8 c 80.63,-33.4 159.65,-90.1 200.24,-216.8 40.58,-126.7 41.71,-345.4 -105.04,-699.7 -149.1,-359.9 -396.8,-783.1 -637.03,-1088.7 -120.12,-152.7 -239.73,-276.3 -333.4,-345.9 -70.24,-52.2 -113.67,-61.5 -125.63,-65.2 -5.9,11.1 -30,48.4 -42.77,135 -17.03,115.4 -14.22,287.3 8.87,480.3 46.21,386 170.27,860.3 319.37,1220.3 146.76,354.3 302.23,508.1 420.51,569 118.24,60.9 214.22,45.1 294.88,11.7 z"
         style="fill:#1a1a1a;fill-opacity:1;fill-rule:nonzero;stroke:none"
         id="path48" /><path
         d="m 16911.7,12335.4 c 312.6,-754.8 505.3,-1931.9 194.9,-2060.5 -310.5,-128.6 -1006.6,840 -1319.3,1594.7 -312.6,754.7 -42.7,1043.2 187.1,1138.4 229.9,95.2 624.7,82.1 937.3,-672.6 z"
         style="fill:#ff4d3a;fill-opacity:1;fill-rule:nonzero;stroke:none"
         id="path50" /><path
         d="m 15909.5,13164.8 c -149.3,-61.7 -320.1,-196.9 -393.7,-426.9 -73.7,-230 -51.2,-532.9 114.7,-933.3 163.5,-394.8 420.2,-833.3 683.8,-1168.6 131.8,-167.6 263.9,-309.2 397.9,-408.7 133.9,-99.4 291.4,-178.9 459.4,-109.3 167.9,69.6 223.1,237.1 247.5,402.1 24.3,165.1 17.7,358.7 -7.7,570.4 -50.7,423.4 -179.2,915 -342.8,1309.8 -165.8,400.4 -364.1,630.5 -578.8,741.1 -214.7,110.5 -431.1,85.3 -580.3,23.4 z m 129.9,-313.7 c 80.7,33.4 176.7,49.2 294.9,-11.7 118.3,-60.9 273.8,-214.7 420.5,-569 149.1,-360 273.2,-834.3 319.4,-1220.3 23.1,-193 25.9,-364.9 8.9,-480.4 -12.8,-86.5 -36.9,-123.8 -42.8,-134.9 -11.9,3.6 -55.4,13 -125.6,65.2 -93.7,69.6 -213.3,193.2 -333.4,345.9 -240.3,305.6 -488,728.8 -637,1088.7 -146.8,354.3 -145.7,573 -105.1,699.7 40.6,126.7 119.6,183.4 200.2,216.8 z"
         style="fill:#1a1a1a;fill-opacity:1;fill-rule:nonzero;stroke:none"
         id="path52" /><path
         d="m 8835.62,9116.6 c -457.03,0 -833.47,-376.44 -833.47,-833.48 0,-457.07 376.44,-833.51 833.47,-833.51 h 6178.98 c 457,0 833.4,376.44 833.4,833.51 0,457.04 -376.4,833.48 -833.4,833.48 z m 0,-543.51 h 6178.98 c 165.3,0 289.9,-124.65 289.9,-289.97 0,-165.35 -124.6,-289.96 -289.9,-289.96 H 8835.62 c -165.35,0 -289.96,124.61 -289.96,289.96 0,165.32 124.61,289.97 289.96,289.97 z"
         style="fill:#1a1a1a;fill-opacity:1;fill-rule:nonzero;stroke:none"
         id="path54" /><path
         d="m 8002.15,18104.2 v -271.8 c 0,-317.2 -109.61,-622.5 -302.97,-874.5 -174.57,-227.5 -258.71,-460.8 -258.71,-735.2 V 9192.27 c 0,-133.83 23.71,-263.6 83.71,-373.32 60,-109.69 139.02,-182.93 218.59,-254.26 120.32,-107.85 216.76,-240.71 282.07,-390.28 l 71.21,-163.04 h 7658.05 l 71.2,163.04 c 65.3,149.61 161.8,282.43 282.1,390.28 79.6,71.33 158.6,144.57 218.6,254.26 60,109.72 83.7,239.49 83.7,373.32 v 7030.43 c 0,274.4 -84.2,507.8 -258.7,735.2 -193.4,252 -303,557.3 -303,874.5 v 271.8 z m 522.62,-543.5 h 6800.63 c 48.8,-341.7 186.5,-662.7 394.4,-933.6 140.8,-183.5 146.4,-197.7 146.4,-404.4 V 9192.27 c 0,-79.77 -8.1,-96.18 -17,-112.47 -8.9,-16.28 -35.8,-48.82 -104.5,-110.39 -133,-119.18 -246.3,-259.14 -335.4,-414.57 H 8440.82 c -89.1,155.43 -202.34,295.39 -335.31,414.57 -68.67,61.57 -95.59,94.11 -104.49,110.39 -8.91,16.29 -17.11,32.7 -17.11,112.47 v 7030.43 c 0,206.7 5.7,220.9 146.44,404.4 207.89,270.9 345.63,591.9 394.42,933.6 z"
         style="fill:#1a1a1a;fill-opacity:1;fill-rule:nonzero;stroke:none"
         id="path56" /><path
         d="m 8835.62,8844.8 h 6178.98 c 311.1,0 561.7,-250.5 561.7,-561.71 0,-311.18 -250.6,-561.68 -561.7,-561.68 H 8835.62 c -311.21,0 -561.71,250.5 -561.71,561.68 0,311.21 250.5,561.71 561.71,561.71 z"
         style="fill:#d7d7d7;fill-opacity:1;fill-rule:nonzero;stroke:none"
         id="path58" /><path
         d="m 9914.06,8844.8 c -311.17,0 -561.72,-250.5 -561.72,-561.68 0,-311.21 250.55,-561.71 561.72,-561.71 h 1078.44 c -311.1,0 -561.6,250.5 -561.6,561.71 0,311.18 250.5,561.68 561.6,561.68 z"
         style="fill:#ffffff;fill-opacity:1;fill-rule:nonzero;stroke:none"
         id="path60" /><path
         d="m 12857.6,8844.8 c 311.2,0 561.7,-250.5 561.7,-561.68 0,-311.21 -250.5,-561.71 -561.7,-561.71 h 2157 c 311.1,0 561.7,250.5 561.7,561.71 0,311.18 -250.6,561.68 -561.7,561.68 z"
         style="fill:#b1b1b1;fill-opacity:1;fill-rule:nonzero;stroke:none"
         id="path62" /><path
         d="m 8835.62,8912.73 c -347.65,0 -629.64,-281.99 -629.64,-629.61 0,-347.65 281.99,-629.64 629.64,-629.64 h 6178.98 c 347.6,0 629.6,281.99 629.6,629.64 0,347.62 -282,629.61 -629.6,629.61 z m 0,-135.89 h 6178.98 c 274.7,0 493.7,-218.99 493.7,-493.72 0,-274.72 -219,-493.82 -493.7,-493.82 H 8835.62 c -274.72,0 -493.78,219.1 -493.78,493.82 0,274.73 219.06,493.72 493.78,493.72 z"
         style="fill:#1a1a1a;fill-opacity:1;fill-rule:nonzero;stroke:none"
         id="path64" /><path
         d="m 8414.3,18665.9 c -301.45,0 -552.58,-251.2 -552.58,-552.6 0,-301.4 251.13,-552.6 552.58,-552.6 h 7021.6 c 301.4,0 552.6,251.2 552.6,552.6 0,301.4 -251.2,552.6 -552.6,552.6 z m 0,-543.5 h 7021.6 c 9.7,0 9.1,0.7 9.1,-9.1 0,-9.7 0.6,-9.1 -9.1,-9.1 H 8414.3 c -9.77,0 -9.1,-0.6 -9.1,9.1 0,9.8 -0.67,9.1 9.1,9.1 z"
         style="fill:#1a1a1a;fill-opacity:1;fill-rule:nonzero;stroke:none"
         id="path66" /><path
         d="m 8273.91,17832.4 c 0,-379.8 -131.29,-743 -359.14,-1039.9 -157.66,-205.5 -202.58,-329.2 -202.58,-569.7 V 9192.27 c 0,-213.6 63.75,-292.35 211.95,-425.2 149.18,-133.71 268.83,-298.48 349.77,-483.95 h 7302.39 c 80.9,185.47 200.6,350.24 349.8,483.95 148.2,132.85 211.9,211.6 211.9,425.2 v 7030.53 c 0,240.5 -44.9,364.2 -202.6,569.7 -227.8,296.9 -359.1,660.1 -359.1,1039.9 z"
         style="fill:#ff4d3a;fill-opacity:1;fill-rule:nonzero;stroke:none"
         id="path68" /><path
         d="m 9352.42,17832.4 c 0,-379.8 -131.29,-743 -359.1,-1039.9 -157.66,-205.5 -202.62,-329.2 -202.62,-569.7 V 9192.27 c 0,-213.6 63.75,-292.35 211.96,-425.2 149.18,-133.71 268.79,-298.48 349.76,-483.95 h 1078.48 c -80.9,185.47 -200.6,350.24 -349.8,483.95 -148.17,132.85 -211.92,211.6 -211.92,425.2 v 7030.53 c 0,240.5 44.96,364.2 202.62,569.7 227.8,296.9 359.1,660.1 359.1,1039.9 z"
         style="fill:#ff9e7b;fill-opacity:1;fill-rule:nonzero;stroke:none"
         id="path70" /><path
         d="m 9450.74,16792.5 h 2633.06 c 63.2,0 114.1,-50.9 114.1,-114.1 0,-63.1 -50.9,-114 -114.1,-114 H 9450.74 c -63.16,0 -114.02,50.9 -114.02,114 0,63.2 50.86,114.1 114.02,114.1 z"
         style="fill:#ff9e7b;fill-opacity:1;fill-rule:nonzero;stroke:none"
         id="path72" /><path
         d="m 13419.2,17832.4 c 0,-379.8 131.4,-743 359.2,-1039.9 157.7,-205.5 202.6,-329.2 202.6,-569.7 V 9192.27 c 0,-213.6 -63.7,-292.35 -211.9,-425.2 -149.2,-133.71 -268.9,-298.48 -349.9,-483.95 h 2157.1 c 80.9,185.47 200.6,350.24 349.8,483.95 148.2,132.85 211.9,211.6 211.9,425.2 v 7030.53 c 0,240.5 -44.9,364.2 -202.6,569.7 -227.8,296.9 -359.1,660.1 -359.1,1039.9 z"
         style="fill:#e0292e;fill-opacity:1;fill-rule:nonzero;stroke:none"
         id="path74" /><path
         d="m 8273.91,17832.4 c 0,-379.8 -131.29,-743 -359.14,-1039.9 h 8020.63 c -227.8,296.9 -359.1,660.1 -359.1,1039.9 z"
         style="fill:#e0292e;fill-opacity:1;fill-rule:nonzero;stroke:none"
         id="path76" /><path
         d="m 13419.2,17832.4 c 0,-379.8 131.4,-743 359.2,-1039.9 h 2157 c -227.8,296.9 -359.1,660.1 -359.1,1039.9 z"
         style="fill:#aa2333;fill-opacity:1;fill-rule:nonzero;stroke:none"
         id="path78" /><path
         d="m 7712.19,9192.27 c 0,-213.6 63.75,-292.35 211.95,-425.2 149.18,-133.71 268.83,-298.48 349.77,-483.95 h 7302.39 c 80.9,185.47 200.6,350.24 349.8,483.95 148.2,132.85 211.9,211.6 211.9,425.2 z"
         style="fill:#b1b1b1;fill-opacity:1;fill-rule:nonzero;stroke:none"
         id="path80" /><path
         d="m 8414.3,18394.1 h 7021.6 c 155.6,0 280.8,-125.2 280.8,-280.8 0,-155.6 -125.2,-280.9 -280.8,-280.9 H 8414.3 c -155.59,0 -280.86,125.3 -280.86,280.9 0,155.6 125.27,280.8 280.86,280.8 z"
         style="fill:#d7d7d7;fill-opacity:1;fill-rule:nonzero;stroke:none"
         id="path82" /><path
         d="m 9492.81,18394.1 c -155.58,0 -280.86,-125.2 -280.86,-280.8 0,-155.6 125.28,-280.9 280.86,-280.9 h 1078.49 c -155.6,0 -280.9,125.3 -280.9,280.9 0,155.6 125.3,280.8 280.9,280.8 z"
         style="fill:#ffffff;fill-opacity:1;fill-rule:nonzero;stroke:none"
         id="path84" /><path
         d="m 13981,9192.27 c 0,-213.6 -63.7,-292.35 -211.9,-425.2 -149.2,-133.71 -268.9,-298.48 -349.8,-483.95 h 2157 c 20.2,46.37 42.9,91.45 67.8,135.04 12.5,21.84 25.5,43.29 39.1,64.34 67.9,105.31 149.6,201.02 242.9,284.57 55.5,49.81 99.2,92.03 132.1,136.6 16.5,22.27 30.3,45.16 41.5,69.88 11.2,24.69 19.8,51.22 26,80.83 8.3,39.49 12.3,84.49 12.3,137.89 z"
         style="fill:#8f8f8f;fill-opacity:1;fill-rule:nonzero;stroke:none"
         id="path86" /><path
         d="m 8790.7,9192.27 c 0,-213.6 63.75,-292.35 211.96,-425.2 149.18,-133.71 268.82,-298.48 349.76,-483.95 h 1078.48 c -80.9,185.47 -200.6,350.24 -349.8,483.95 -148.17,132.85 -211.88,211.6 -211.88,425.2 z"
         style="fill:#d5d5d5;fill-opacity:1;fill-rule:nonzero;stroke:none"
         id="path88" /><path
         d="m 13278.9,18394.1 c 155.7,0 280.9,-125.2 280.9,-280.8 0,-155.6 -125.2,-280.9 -280.9,-280.9 h 2157 c 155.6,0 280.9,125.3 280.9,280.9 0,155.6 -125.3,280.8 -280.9,280.8 z"
         style="fill:#b1b1b1;fill-opacity:1;fill-rule:nonzero;stroke:none"
         id="path90" /><path
         d="m 9352.42,17832.4 c 0,-379.8 -131.33,-743 -359.14,-1039.9 h 1078.52 c 227.8,296.9 359.1,660.1 359.1,1039.9 z"
         style="fill:#ff5846;fill-opacity:1;fill-rule:nonzero;stroke:none"
         id="path92" /><path
         d="m 8414.3,18462.1 c -192.07,0 -348.79,-156.7 -348.79,-348.8 0,-192 156.72,-348.8 348.79,-348.8 h 7021.6 c 192,0 348.8,156.8 348.8,348.8 0,192.1 -156.8,348.8 -348.8,348.8 z m 0,-135.9 h 7021.6 c 119.1,0 212.9,-93.8 212.9,-212.9 0,-119.1 -93.8,-212.9 -212.9,-212.9 H 8414.3 c -119.14,0 -212.89,93.8 -212.89,212.9 0,119.1 93.75,212.9 212.89,212.9 z"
         style="fill:#1a1a1a;fill-opacity:1;fill-rule:nonzero;stroke:none"
         id="path94" /><path
         d="m 13601.1,8964.22 h 2529.06 v 228.051 H 13601.1 Z"
         style="fill:#b1b1b1;fill-opacity:1;fill-rule:nonzero;stroke:none"
         id="path96" /><path
         d="m 13627.7,16792.5 v -228.1 h 2450.5 c -31.5,71.5 -77.3,142.7 -142.8,228.1 z"
         style="fill:#ff4d3a;fill-opacity:1;fill-rule:nonzero;stroke:none"
         id="path98" /><path
         d="m 8205.98,17900.4 v -68 c 0,-364.2 -125.9,-712.9 -345.12,-998.6 -161.88,-210.9 -216.6,-362.1 -216.6,-611.1 V 9192.27 c 0,-113.56 17.89,-200.82 58.75,-275.51 40.82,-74.65 100.35,-132.66 175.82,-200.28 141.95,-127.26 255.78,-284.02 332.81,-460.5 l 17.77,-40.82 h 7391.39 l 17.8,40.74 c 77,176.52 190.8,333.32 332.8,460.58 75.4,67.62 135,125.63 175.8,200.28 40.9,74.69 58.7,161.95 58.7,275.51 v 7030.43 c 0,249 -54.7,400.2 -216.6,611.1 -219.2,285.7 -345.1,634.4 -345.1,998.6 v 68 z m 130.07,-135.9 h 7178.05 c 14.9,-370.4 144.7,-723.1 367.4,-1013.4 153.5,-199.9 188.6,-296.3 188.6,-528.4 V 9192.27 c 0,-100.04 -14,-158.95 -42.1,-210.28 -28.1,-51.29 -74.6,-99.14 -147.3,-164.33 -145.1,-130.08 -262.1,-289.11 -346.2,-466.61 H 8315.7 c -84.14,177.5 -201.05,336.53 -346.21,466.61 -72.73,65.19 -119.22,113.04 -147.3,164.33 -28.09,51.33 -42.07,110.24 -42.07,210.28 v 7030.43 c 0,232.1 35.15,328.5 188.55,528.4 222.74,290.3 352.54,643 367.38,1013.4 z"
         style="fill:#1a1a1a;fill-opacity:1;fill-rule:nonzero;stroke:none"
         id="path100" /><path
         d="m 9450.74,9192.27 h 2633.06 c 63.2,0 114.1,-50.86 114.1,-114.03 0,-63.16 -50.9,-114.02 -114.1,-114.02 H 9450.74 c -63.16,0 -114.02,50.86 -114.02,114.02 0,63.17 50.86,114.03 114.02,114.03 z"
         style="fill:#d5d5d5;fill-opacity:1;fill-rule:nonzero;stroke:none"
         id="path102" /><path
         d="m 10481.1,15382.7 c 387.8,0 699.9,-312.1 699.9,-699.9 V 14332 c 0,-387.7 -312.1,-699.9 -699.9,-699.9 -387.7,0 -699.93,312.2 -699.93,699.9 v 350.8 c 0,387.8 312.23,699.9 699.93,699.9 z"
         style="fill:#1a1a1a;fill-opacity:1;fill-rule:nonzero;stroke:none"
         id="path104" /><path
         d="m 10888.5,14880.9 c 0,-60 -23.8,-117.4 -66.2,-159.8 -42.3,-42.3 -99.8,-66.2 -159.7,-66.2 -124.8,0.1 -226,101.2 -226,226 0,124.7 101.2,225.9 226,225.9 59.9,0 117.4,-23.8 159.7,-66.2 42.4,-42.4 66.2,-99.8 66.2,-159.7 z"
         style="fill:#ffffff;fill-opacity:1;fill-rule:nonzero;stroke:none"
         id="path106" /><path
         d="m 13369.1,15382.7 c 387.8,0 699.9,-312.1 699.9,-699.9 V 14332 c 0,-387.7 -312.1,-699.9 -699.9,-699.9 -387.7,0 -699.9,312.2 -699.9,699.9 v 350.8 c 0,387.8 312.2,699.9 699.9,699.9 z"
         style="fill:#1a1a1a;fill-opacity:1;fill-rule:nonzero;stroke:none"
         id="path108" /><path
         d="m 13776.5,14880.9 c 0,-124.8 -101.1,-225.9 -225.9,-226 -59.9,0 -117.4,23.9 -159.8,66.2 -42.4,42.4 -66.2,99.8 -66.2,159.8 0,59.9 23.8,117.3 66.2,159.7 42.4,42.4 99.9,66.2 159.8,66.2 124.8,0 225.9,-101.2 225.9,-225.9 z"
         style="fill:#ffffff;fill-opacity:1;fill-rule:nonzero;stroke:none"
         id="path110" /><path
         d="m 12420.9,12725 c 0,-212.4 -52.2,-416.1 -145.2,-566.3 -93,-150.2 -219.1,-234.6 -350.6,-234.6 -131.5,0 -257.6,84.4 -350.6,234.6 -92.9,150.2 -145.2,353.9 -145.2,566.3 0,212.4 52.3,416.1 145.2,566.3 93,150.1 219.1,234.5 350.6,234.5 131.5,0 257.6,-84.4 350.6,-234.5 93,-150.2 145.2,-353.9 145.2,-566.3 z"
         style="fill:#ff5574;fill-opacity:1;fill-rule:nonzero;stroke:none"
         id="path112" /><path
         d="m 11925.1,13593.8 c -166.5,0 -310.5,-108.7 -408.3,-266.8 -97.9,-158.1 -155.4,-369.5 -155.4,-602 0,-232.5 57.5,-444 155.4,-602 97.8,-158.1 241.8,-266.8 408.3,-266.8 166.6,0 310.5,108.7 408.3,266.8 97.9,158 155.4,369.5 155.4,602 0,232.5 -57.5,443.9 -155.4,602 -97.8,158.1 -241.7,266.8 -408.3,266.8 z m 0,-135.9 c 107.3,0 211.2,-70.6 292.8,-202.4 81.6,-131.7 135.1,-320.7 135.1,-530.5 0,-209.8 -53.5,-398.7 -135.1,-530.5 -81.6,-131.8 -185.5,-202.4 -292.8,-202.4 -107.2,0 -211.2,70.6 -292.8,202.4 -81.6,131.8 -135.1,320.7 -135.1,530.5 0,209.8 53.5,398.8 135.1,530.5 81.6,131.8 185.6,202.4 292.8,202.4 z"
         style="fill:#1a1a1a;fill-opacity:1;fill-rule:nonzero;stroke:none"
         id="path114" /></g></g></svg>
